<svg width="25" height="28" viewBox="0 0 25 28" fill="none" xmlns="http://www.w3.org/2000/svg">
<path d="M4.35355 0.646447C4.15829 0.451184 3.84171 0.451184 3.64645 0.646447L0.464466 3.82843C0.269204 4.02369 0.269204 4.34027 0.464466 4.53553C0.659728 4.7308 0.976311 4.7308 1.17157 4.53553L4 1.70711L6.82843 4.53553C7.02369 4.7308 7.34027 4.7308 7.53553 4.53553C7.7308 4.34027 7.7308 4.02369 7.53553 3.82843L4.35355 0.646447ZM4.5 6L4.5 1L3.5 1L3.5 6L4.5 6Z" fill="white"/>
<path d="M24.5183 27.4997C24.7943 27.4896 25.0098 27.2578 24.9998 26.9818C24.9897 26.7058 24.7579 26.4903 24.4819 26.5003L24.5183 27.4997ZM24.4819 26.5003C16.4819 26.7916 11.5685 26.0182 8.60949 23.1114C5.6454 20.1997 4.50011 15.0086 4.50012 6L3.50012 6C3.50011 14.9914 4.61681 20.5911 7.90872 23.8248C11.2057 27.0635 16.5423 27.7901 24.5183 27.4997L24.4819 26.5003Z" fill="white"/>
</svg>
