<svg width="54" height="54" viewBox="0 0 54 54" fill="none" xmlns="http://www.w3.org/2000/svg">
<path d="M24.0363 28.4827C24.0363 30.6512 22.4828 32.4157 20.5295 32.4157C18.6068 32.4157 17.0227 30.6512 17.0227 28.4827C17.0227 26.3154 18.5762 24.5498 20.5295 24.5498C22.4975 24.5498 24.0669 26.3312 24.0363 28.4827ZM37.0016 28.4827C37.0016 30.6512 35.4639 32.4157 33.4948 32.4157C31.5721 32.4157 29.9879 30.6512 29.9879 28.4827C29.9879 26.3154 31.5415 24.5498 33.4948 24.5498C35.4639 24.5498 37.0322 26.3312 37.0016 28.4827Z" fill="white"/>
<path d="M27 0C12.0888 0 0 12.0888 0 27C0 41.9112 12.0888 54 27 54C41.9112 54 54 41.9112 54 27C54 12.0888 41.9112 0 27 0ZM46.2913 36.9404C42.9543 39.3915 39.7206 40.8797 36.5323 41.8658C36.4816 41.8816 36.4268 41.8627 36.3952 41.8194C35.659 40.7943 34.9903 39.7132 34.4039 38.5784C34.3702 38.5119 34.4007 38.4318 34.4703 38.4054C35.5324 38.0036 36.5428 37.5237 37.5152 36.9562C37.5922 36.9109 37.5964 36.8012 37.5258 36.7485C37.3201 36.5955 37.1155 36.4342 36.9204 36.2728C36.9028 36.2584 36.8815 36.2492 36.8589 36.2464C36.8363 36.2436 36.8134 36.2473 36.7928 36.257C30.4815 39.1732 23.568 39.1732 17.1819 36.257C17.1408 36.2391 17.0912 36.2454 17.0564 36.2749C16.8613 36.4352 16.6567 36.5955 16.4521 36.7485C16.3814 36.8012 16.3867 36.9109 16.4637 36.9562C17.4361 37.5131 18.4465 38.0036 19.5075 38.4064C19.5771 38.4328 19.6098 38.5119 19.575 38.5784C19.0023 39.7153 18.3326 40.7953 17.5827 41.8205C17.55 41.8627 17.4962 41.8816 17.4456 41.8658C14.272 40.8797 11.0394 39.3915 7.70133 36.9404C7.67391 36.9183 7.65387 36.8845 7.6507 36.8487C6.97148 29.5682 8.35734 22.197 13.4156 14.6391C13.4283 14.619 13.4462 14.6032 13.4684 14.5948C15.9974 13.4322 18.6671 12.6039 21.4102 12.131C21.4608 12.1236 21.5114 12.1468 21.5378 12.1911C21.8827 12.8018 22.2761 13.5833 22.5429 14.2225C25.4802 13.7742 28.4639 13.7742 31.4634 14.2225C31.7292 13.597 32.1089 12.8018 32.4517 12.1911C32.478 12.1447 32.5287 12.1215 32.5793 12.131C35.3224 12.605 37.9923 13.4331 40.5221 14.5948C40.5443 14.6032 40.5622 14.619 40.5728 14.6412C44.9793 21.1222 47.1561 28.4333 46.3419 36.8508C46.3388 36.8866 46.3208 36.9183 46.2913 36.9404Z" fill="white"/>
</svg>
