<svg width="53" height="54" viewBox="0 0 53 54" fill="none" xmlns="http://www.w3.org/2000/svg">
<g clip-path="url(#clip0_6047_25837)">
<path d="M26.5 54C41.1355 54 53 41.9117 53 27C53 12.0883 41.1355 0 26.5 0C11.8645 0 0 12.0883 0 27C0 41.9117 11.8645 54 26.5 54Z" fill="white"/>
<path d="M12.1257 26.414L37.6761 16.3768C38.862 15.9403 39.8977 16.6715 39.5134 18.4985L39.5156 18.4963L35.1652 39.3785C34.8428 40.859 33.9793 41.219 32.7714 40.5215L26.1464 35.5468L22.9509 38.6833C22.5976 39.0433 22.2995 39.347 21.6149 39.347L22.0853 32.4778L34.3636 21.176C34.898 20.6968 34.2443 20.4268 33.5399 20.9038L18.3664 30.6373L11.8253 28.5583C10.4054 28.0993 10.3745 27.1115 12.1257 26.414Z" fill="#3778BE"/>
</g>
<defs>
<clipPath id="clip0_6047_25837">
<rect width="53" height="54" fill="white"/>
</clipPath>
</defs>
</svg>
