<svg width="22" height="24" viewBox="0 0 22 24" fill="none" xmlns="http://www.w3.org/2000/svg">
<path d="M16.1765 8.66444C17.7198 9.77162 19.6105 10.4231 21.6525 10.4231V6.47959C21.2661 6.47967 20.8806 6.43923 20.5025 6.35884V9.46291C18.4606 9.46291 16.5702 8.81147 15.0265 7.70438V15.7519C15.0265 19.7776 11.7745 23.0409 7.76333 23.0409C6.26666 23.0409 4.87556 22.5868 3.71997 21.808C5.03888 23.1614 6.87821 24.001 8.91309 24.001C12.9245 24.001 16.1766 20.7377 16.1766 16.7118L16.1765 8.66444ZM17.5951 4.68597C16.8064 3.8212 16.2885 2.70365 16.1765 1.46815V0.960938H15.0867C15.361 2.53126 16.2966 3.87285 17.5951 4.68597ZM6.25706 18.7188C5.81638 18.1389 5.57824 17.4296 5.57931 16.7002C5.57931 14.859 7.06672 13.3661 8.90177 13.3661C9.2438 13.366 9.5837 13.4186 9.9096 13.5223V9.49075C9.5287 9.43836 9.1443 9.41612 8.7601 9.42428V12.5623C8.43394 12.4585 8.09384 12.4058 7.75177 12.4061C5.91671 12.4061 4.42938 13.8988 4.42938 15.7403C4.42938 17.0424 5.17284 18.1696 6.25706 18.7188Z" fill="#4B3C2A"/>
<path d="M15.0265 7.7043C16.5702 8.81139 18.4607 9.46283 20.5025 9.46283V6.35876C19.3628 6.11511 18.3538 5.51738 17.5951 4.68597C16.2966 3.87276 15.361 2.53118 15.0867 0.960938H12.2241V16.7116C12.2176 18.5478 10.7327 20.0346 8.90162 20.0346C7.82257 20.0346 6.86394 19.5184 6.25682 18.7188C5.17269 18.1696 4.42923 17.0423 4.42923 15.7404C4.42923 13.8991 5.91655 12.4062 7.75161 12.4062C8.1032 12.4062 8.44208 12.4611 8.75995 12.5624V9.42436C4.81921 9.50607 1.6499 12.7375 1.6499 16.7117C1.6499 18.6956 2.43913 20.494 3.72006 21.8081C4.87565 22.5868 6.26675 23.041 7.76342 23.041C11.7747 23.041 15.0265 19.7775 15.0265 15.7519V7.7043Z" fill="#705B42"/>
<path d="M20.5025 6.3578V5.51848C19.4748 5.52005 18.4672 5.23119 17.5952 4.68493C18.3671 5.53306 19.3835 6.11787 20.5025 6.3578ZM15.0867 0.959983C15.0605 0.809911 15.0404 0.658851 15.0265 0.507214V0H11.074V15.7508C11.0677 17.5868 9.5829 19.0736 7.75164 19.0736C7.214 19.0736 6.70638 18.9455 6.25685 18.7179C6.86397 19.5174 7.82259 20.0336 8.90164 20.0336C10.7326 20.0336 12.2177 18.5469 12.2241 16.7107V0.959983H15.0867ZM8.76014 9.42341V8.52989C8.42988 8.48459 8.09691 8.46186 7.76353 8.46202C3.75192 8.46194 0.5 11.7254 0.5 15.7508C0.5 18.2745 1.77806 20.4987 3.72017 21.807C2.43924 20.493 1.65001 18.6944 1.65001 16.7106C1.65001 12.7365 4.81924 9.50511 8.76014 9.42341Z" fill="#705B42"/>
</svg>
