<svg width="251" height="29" viewBox="0 0 251 29" fill="none" xmlns="http://www.w3.org/2000/svg">
<path d="M146.549 7.92705C146.848 7.00574 148.152 7.00574 148.451 7.92705L149.857 12.2553C149.991 12.6673 150.375 12.9463 150.808 12.9463H155.359C156.328 12.9463 156.731 14.1859 155.947 14.7553L152.265 17.4303C151.915 17.685 151.768 18.1364 151.902 18.5484L153.308 22.8766C153.608 23.798 152.553 24.5641 151.77 23.9947L148.088 21.3197C147.737 21.065 147.263 21.065 146.912 21.3197L143.23 23.9947C142.447 24.5641 141.392 23.798 141.692 22.8766L143.098 18.5484C143.232 18.1364 143.085 17.685 142.735 17.4303L139.053 14.7553C138.269 14.1859 138.672 12.9463 139.641 12.9463H144.192C144.625 12.9463 145.009 12.6673 145.143 12.2553L146.549 7.92705Z" fill="#04DA8D"/>
<path d="M169.549 7.92705C169.848 7.00574 171.152 7.00574 171.451 7.92705L172.857 12.2553C172.991 12.6673 173.375 12.9463 173.808 12.9463H178.359C179.328 12.9463 179.731 14.1859 178.947 14.7553L175.265 17.4303C174.915 17.685 174.768 18.1364 174.902 18.5484L176.308 22.8766C176.608 23.798 175.553 24.5641 174.77 23.9947L171.088 21.3197C170.737 21.065 170.263 21.065 169.912 21.3197L166.23 23.9947C165.447 24.5641 164.392 23.798 164.692 22.8766L166.098 18.5484C166.232 18.1364 166.085 17.685 165.735 17.4303L162.053 14.7553C161.269 14.1859 161.672 12.9463 162.641 12.9463H167.192C167.625 12.9463 168.009 12.6673 168.143 12.2553L169.549 7.92705Z" fill="#04DA8D"/>
<path d="M192.549 7.92705C192.848 7.00574 194.152 7.00574 194.451 7.92705L195.857 12.2553C195.991 12.6673 196.375 12.9463 196.808 12.9463H201.359C202.328 12.9463 202.731 14.1859 201.947 14.7553L198.265 17.4303C197.915 17.685 197.768 18.1364 197.902 18.5484L199.308 22.8766C199.608 23.798 198.553 24.5641 197.77 23.9947L194.088 21.3197C193.737 21.065 193.263 21.065 192.912 21.3197L189.23 23.9947C188.447 24.5641 187.392 23.798 187.692 22.8766L189.098 18.5484C189.232 18.1364 189.085 17.685 188.735 17.4303L185.053 14.7553C184.269 14.1859 184.672 12.9463 185.641 12.9463H190.192C190.625 12.9463 191.009 12.6673 191.143 12.2553L192.549 7.92705Z" fill="#04DA8D"/>
<path d="M215.549 7.92705C215.848 7.00574 217.152 7.00574 217.451 7.92705L218.857 12.2553C218.991 12.6673 219.375 12.9463 219.808 12.9463H224.359C225.328 12.9463 225.731 14.1859 224.947 14.7553L221.265 17.4303C220.915 17.685 220.768 18.1364 220.902 18.5484L222.308 22.8766C222.608 23.798 221.553 24.5641 220.77 23.9947L217.088 21.3197C216.737 21.065 216.263 21.065 215.912 21.3197L212.23 23.9947C211.447 24.5641 210.392 23.798 210.692 22.8766L212.098 18.5484C212.232 18.1364 212.085 17.685 211.735 17.4303L208.053 14.7553C207.269 14.1859 207.672 12.9463 208.641 12.9463H213.192C213.625 12.9463 214.009 12.6673 214.143 12.2553L215.549 7.92705Z" fill="#04DA8D"/>
<path d="M238.549 7.92705C238.848 7.00574 240.152 7.00574 240.451 7.92705L241.857 12.2553C241.991 12.6673 242.375 12.9463 242.808 12.9463H247.359C248.328 12.9463 248.731 14.1859 247.947 14.7553L244.265 17.4303C243.915 17.685 243.768 18.1364 243.902 18.5484L245.308 22.8766C245.608 23.798 244.553 24.5641 243.77 23.9947L240.088 21.3197C239.737 21.065 239.263 21.065 238.912 21.3197L235.23 23.9947C234.447 24.5641 233.392 23.798 233.692 22.8766L235.098 18.5484C235.232 18.1364 235.085 17.685 234.735 17.4303L231.053 14.7553C230.269 14.1859 230.672 12.9463 231.641 12.9463H236.192C236.625 12.9463 237.009 12.6673 237.143 12.2553L238.549 7.92705Z" fill="#04DA8D"/>
<g clip-path="url(#clip0_8024_3903)">
<path d="M31.53 10.2079H43.6783V12.423H38.9023V24.8776H36.2743V12.423H31.5189V10.207H31.5291L31.53 10.2079ZM43.1597 14.2551H45.4054V16.3056H45.4474C45.522 16.0156 45.6591 15.7358 45.8606 15.4663C46.2913 14.8886 46.8742 14.4408 47.5449 14.1724C47.8855 14.038 48.2482 13.9678 48.6146 13.9651C48.8889 13.9651 49.0911 13.9753 49.1974 13.9864C49.3029 13.9966 49.4083 14.0171 49.5249 14.0274V16.2842C49.3529 16.2543 49.1799 16.2301 49.0063 16.2117C48.8339 16.1914 48.6605 16.1812 48.4869 16.181C48.084 16.181 47.7034 16.2638 47.3434 16.4199C46.9834 16.5742 46.6757 16.8122 46.4117 17.1133C46.13 17.4499 45.9143 17.8362 45.7757 18.252C45.6171 18.7074 45.5426 19.2243 45.5426 19.8154V24.8674H43.1494V14.2551H43.1597ZM60.5297 24.8785H58.1786V23.3978H58.1357C57.8391 23.9368 57.4054 24.3616 56.8226 24.6823C56.2397 25.003 55.6466 25.1685 55.0431 25.1685C53.6134 25.1685 52.5746 24.8273 51.9403 24.133C51.3043 23.4396 50.9863 22.3939 50.9863 20.9959V14.2559H53.3803V20.7681C53.3803 21.7004 53.5603 22.3631 53.9314 22.7461C54.2914 23.1291 54.81 23.3261 55.4666 23.3261C55.9749 23.3261 56.388 23.2536 56.7266 23.0975C57.066 22.9423 57.3411 22.7461 57.5426 22.4868C57.7543 22.2386 57.9026 21.9281 57.9986 21.5759C58.0929 21.2236 58.1357 20.8406 58.1357 20.427V14.2662H60.5297V24.8785ZM64.6071 21.4727C64.6817 22.155 64.9457 22.6327 65.4017 22.9116C65.8671 23.1811 66.4183 23.3261 67.0646 23.3261C67.2874 23.3261 67.5411 23.3048 67.8274 23.2741C68.1129 23.2425 68.388 23.17 68.6323 23.0779C68.886 22.9841 69.0866 22.8391 69.2563 22.6531C69.4157 22.4655 69.4894 22.2284 69.4791 21.9281C69.4778 21.7888 69.4469 21.6513 69.3886 21.5246C69.3302 21.398 69.2457 21.2849 69.1406 21.1929C68.928 20.9967 68.664 20.8517 68.3349 20.7272C67.9682 20.6008 67.593 20.5005 67.212 20.427C66.7886 20.3442 66.3651 20.2504 65.9314 20.1574C65.4945 20.0634 65.063 19.9458 64.6389 19.8052C64.2411 19.6783 63.8659 19.4898 63.5271 19.2465C63.1971 19.0173 62.9279 18.7117 62.7429 18.356C62.5423 17.9935 62.4463 17.5483 62.4463 17.0101C62.4463 16.4301 62.5946 15.9541 62.8809 15.5601C63.1696 15.1693 63.5424 14.8476 63.972 14.6184C64.4337 14.3756 64.93 14.2044 65.4437 14.1109C65.9837 14.018 66.5031 13.9659 66.99 13.9659C67.5514 13.9659 68.0914 14.0282 68.6006 14.1425C69.0935 14.2475 69.5633 14.4402 69.9874 14.7114C70.4006 14.9707 70.7391 15.3119 71.0151 15.7264C71.2903 16.1401 71.46 16.6476 71.5337 17.2378H69.0343C68.9177 16.6791 68.6631 16.2962 68.2509 16.1094C67.8377 15.9132 67.3611 15.8194 66.8314 15.8194C66.6617 15.8194 66.4603 15.8296 66.228 15.8612C66.0042 15.8908 65.7839 15.9428 65.5706 16.0164C65.3756 16.0879 65.1986 16.2008 65.052 16.3474C64.9808 16.4238 64.9255 16.5135 64.8892 16.6113C64.8528 16.709 64.8362 16.813 64.8403 16.9171C64.8403 17.2071 64.9457 17.4349 65.1471 17.6106C65.3486 17.7863 65.6134 17.9313 65.9417 18.0558C66.27 18.1701 66.6411 18.2733 67.0646 18.356C67.488 18.4388 67.9217 18.5317 68.3674 18.6256C68.8011 18.7185 69.2246 18.8431 69.6489 18.977C70.0723 19.1117 70.4426 19.2985 70.7717 19.5365C71.1 19.7745 71.3649 20.0645 71.5654 20.4167C71.7669 20.7681 71.8731 21.2134 71.8731 21.7311C71.8731 22.3623 71.7249 22.8911 71.4274 23.3364C71.1317 23.7714 70.7503 24.133 70.284 24.4025C69.7959 24.6823 69.267 24.8849 68.7163 25.003C68.1561 25.1257 67.5842 25.188 67.0106 25.1889C66.3682 25.1961 65.7276 25.1196 65.1051 24.9612C64.5223 24.806 64.014 24.5782 63.5906 24.2789C63.1721 23.9763 62.828 23.5831 62.5843 23.1291C62.3409 22.6736 62.2131 22.1243 62.1926 21.4931H64.6071V21.4727ZM72.5083 14.2568H74.3194V11.0668H76.7134V14.2568H78.8734V16.0053H76.7143V21.6799C76.7143 21.9273 76.7246 22.1354 76.746 22.3214C76.7666 22.4979 76.8197 22.6531 76.8943 22.7768C76.9753 22.9068 77.0983 23.0054 77.2431 23.0566C77.4026 23.1189 77.6031 23.1504 77.8791 23.1504C78.048 23.1504 78.2177 23.1504 78.3874 23.1393C78.5571 23.1291 78.726 23.1086 78.8957 23.0668V24.8785C78.6309 24.91 78.366 24.9305 78.1226 24.9612C77.866 24.9909 77.6078 25.0048 77.3494 25.003C76.7143 25.003 76.206 24.9407 75.8237 24.8273C75.4431 24.713 75.1354 24.5373 74.9237 24.3096C74.7009 24.0818 74.5637 23.8021 74.4789 23.46C74.3963 23.0754 74.3504 22.6839 74.3417 22.2906V16.0249H72.5306V14.2542H72.5091L72.5083 14.2568ZM80.568 14.2568H82.8351V15.6949H82.878C83.2157 15.0739 83.682 14.6389 84.2854 14.3702C84.9022 14.0973 85.5707 13.9595 86.2457 13.9659C87.1029 13.9659 87.8443 14.1109 88.4803 14.4112C89.1154 14.7012 89.6451 15.1055 90.0686 15.6224C90.492 16.1401 90.7997 16.7406 91.0114 17.4246C91.2272 18.1362 91.3344 18.876 91.3294 19.6192C91.3294 20.3331 91.2343 21.0266 91.0432 21.6902C90.8676 22.3303 90.5769 22.9334 90.1851 23.4703C89.8001 23.9879 89.2999 24.4097 88.7237 24.7028C88.1306 25.0132 87.4423 25.1685 86.6374 25.1685C86.2856 25.1681 85.9345 25.1367 85.5883 25.0746C85.2429 25.0127 84.9057 24.9123 84.5829 24.7753C84.2622 24.6421 83.9623 24.464 83.6923 24.2464C83.4258 24.0349 83.1936 23.7837 83.004 23.5018H82.9611V28.8029H80.568V14.2551V14.2568ZM88.9354 19.5774C88.9359 19.1053 88.8719 18.6353 88.7452 18.1803C88.6278 17.7492 88.4339 17.3425 88.1726 16.9794C87.9246 16.6339 87.6029 16.3473 87.2306 16.1401C86.8306 15.925 86.3823 15.8147 85.9277 15.8194C84.9214 15.8194 84.1586 16.1606 83.6503 16.8446C83.142 17.5278 82.8874 18.4396 82.8874 19.5774C82.8874 20.1156 82.9517 20.6129 83.0889 21.0684C83.226 21.5239 83.4171 21.9179 83.6923 22.2489C83.958 22.5806 84.2751 22.8391 84.6463 23.025C85.0166 23.2221 85.4511 23.315 85.938 23.315C86.4891 23.315 86.9443 23.2016 87.3257 22.9841C87.6951 22.7726 88.0132 22.4829 88.2574 22.1354C88.5009 21.7831 88.6817 21.3891 88.7871 20.9447C88.8846 20.4954 88.9343 20.0371 88.9354 19.5774ZM93.1611 10.2079H95.5551V12.4238H93.1611V10.2079ZM93.1611 14.2559H95.5551V24.8785H93.1611V14.2559ZM97.6946 10.2079H100.089V24.8785H97.6946V10.2079ZM107.428 25.1685C106.559 25.1685 105.786 25.0235 105.109 24.7446C104.46 24.4796 103.872 24.0848 103.383 23.5846C102.907 23.0743 102.542 22.4713 102.312 21.8139C102.06 21.0881 101.935 20.3248 101.942 19.557C101.942 18.7492 102.069 18.0046 102.312 17.3206C102.542 16.6634 102.907 16.0608 103.383 15.5507C103.848 15.0534 104.431 14.6705 105.109 14.3907C105.786 14.1109 106.559 13.9659 107.428 13.9659C108.297 13.9659 109.07 14.1109 109.748 14.3907C110.426 14.6705 110.997 15.0645 111.474 15.5507C111.95 16.0606 112.314 16.6633 112.544 17.3206C112.787 18.0038 112.914 18.7492 112.914 19.557C112.914 20.3758 112.787 21.1306 112.544 21.8139C112.314 22.4715 111.95 23.0744 111.474 23.5846C111.008 24.0818 110.426 24.4648 109.748 24.7446C109.07 25.0235 108.297 25.1685 107.428 25.1685ZM107.428 23.315C107.958 23.315 108.423 23.2016 108.815 22.9841C109.197 22.7726 109.526 22.4788 109.779 22.1243C110.033 21.7729 110.213 21.3686 110.341 20.9234C110.457 20.4781 110.521 20.0227 110.521 19.557C110.521 19.1015 110.457 18.6563 110.341 18.2008C110.232 17.7688 110.041 17.3612 109.779 16.9999C109.526 16.6487 109.196 16.3587 108.815 16.1512C108.423 15.9337 107.958 15.8194 107.428 15.8194C106.899 15.8194 106.432 15.9337 106.041 16.1512C105.662 16.3618 105.333 16.6513 105.077 16.9999C104.819 17.3634 104.629 17.7702 104.516 18.2008C104.398 18.6435 104.338 19.0991 104.335 19.557C104.335 20.0227 104.399 20.4781 104.516 20.9234C104.632 21.3686 104.823 21.7729 105.077 22.1243C105.331 22.4766 105.649 22.7666 106.041 22.9841C106.432 23.2118 106.899 23.315 107.428 23.315ZM113.613 14.2568H115.425V11.0668H117.819V14.2568H119.979V16.0053H117.819V21.6799C117.819 21.9273 117.829 22.1354 117.849 22.3214C117.871 22.4979 117.924 22.6531 117.999 22.7768C118.079 22.9069 118.203 23.0056 118.347 23.0566C118.507 23.1189 118.707 23.1504 118.983 23.1504C119.152 23.1504 119.322 23.1504 119.492 23.1393C119.661 23.1291 119.83 23.1086 120 23.0668V24.8785C119.735 24.91 119.47 24.9305 119.227 24.9612C118.97 24.9909 118.712 25.0048 118.454 25.003C117.819 25.003 117.309 24.9407 116.928 24.8273C116.547 24.713 116.24 24.5373 116.028 24.3096C115.806 24.0818 115.668 23.8021 115.583 23.46C115.501 23.0754 115.455 22.6839 115.446 22.2906V16.0249H113.635V14.2542H113.613V14.2568Z" fill="white"/>
<path d="M28.734 10.2089H17.7617L14.3726 0L10.9714 10.2097L0 10.1986L8.886 16.5138L5.48657 26.7116L14.3726 20.4066L23.2483 26.7116L19.8591 16.5138L28.734 10.2089Z" fill="#04DA8D"/>
<path d="M20.6211 18.8245L19.8583 16.5156L14.3726 20.4084L20.6211 18.8245Z" fill="#126849"/>
</g>
<defs>
<clipPath id="clip0_8024_3903">
<rect width="120" height="29" fill="white"/>
</clipPath>
</defs>
</svg>
