<svg width="331" height="110" viewBox="0 0 331 110" fill="none" xmlns="http://www.w3.org/2000/svg">
<path d="M1 2C6.62392 131.117 157 156 329 2" stroke="#FF8D07" stroke-width="2"/>
<path d="M331 1C331 0.447715 330.552 2.63102e-08 330 1.10604e-07L321 -1.0013e-07C320.448 -1.0013e-07 320 0.447715 320 1C320 1.55228 320.448 2 321 2L329 2L329 10C329 10.5523 329.448 11 330 11C330.552 11 331 10.5523 331 10L331 1ZM329.707 2.70711L330.707 1.70711L329.293 0.292893L328.293 1.29289L329.707 2.70711Z" fill="#FF8D07"/>
</svg>
