<svg width="128" height="22" viewBox="0 0 128 22" fill="none" xmlns="http://www.w3.org/2000/svg">
<g clip-path="url(#clip0_8014_1365)">
<path d="M32.1101 17.3025H34.6085V7.48559H37.8771V5.11719H28.8759V7.48559H32.1101V17.3025Z" fill="white"/>
<path d="M37.8809 17.3053H40.2254V13.2035C40.2254 11.7789 40.9612 10.9208 42.0735 10.9208C42.4671 10.9208 42.7751 10.9895 43.1345 11.1097V8.72405C42.8436 8.63824 42.604 8.62109 42.3473 8.62109C41.389 8.62109 40.5163 9.25608 40.2254 10.0971V8.72405H37.8809V17.3053Z" fill="white"/>
<path d="M47.6342 17.4939C48.815 17.4939 49.7049 16.8932 50.0985 16.344V17.3051H52.4429V8.72391H50.0985V9.685C49.7049 9.13583 48.815 8.53516 47.6342 8.53516C45.3582 8.53516 43.6127 10.5947 43.6127 13.0145C43.6127 15.4344 45.3582 17.4939 47.6342 17.4939ZM48.1305 15.3486C46.8299 15.3486 45.9743 14.3703 45.9743 13.0145C45.9743 11.6587 46.8299 10.6805 48.1305 10.6805C49.4311 10.6805 50.2867 11.6587 50.2867 13.0145C50.2867 14.3703 49.4311 15.3486 48.1305 15.3486Z" fill="white"/>
<path d="M58.0254 17.4941C59.2062 17.4941 60.096 16.8934 60.4896 16.3443V17.3054H62.8341V4.43359H60.4896V9.68523C60.096 9.13606 59.2062 8.53539 58.0254 8.53539C55.7495 8.53539 54.004 10.5949 54.004 13.0147C54.004 15.4346 55.7495 17.4941 58.0254 17.4941ZM58.5216 15.3488C57.2211 15.3488 56.3655 14.3706 56.3655 13.0147C56.3655 11.6589 57.2211 10.6807 58.5216 10.6807C59.8222 10.6807 60.6779 11.6589 60.6779 13.0147C60.6779 14.3706 59.8222 15.3488 58.5216 15.3488Z" fill="white"/>
<path d="M66.1053 7.31437C66.9437 7.31437 67.6111 6.64503 67.6111 5.82125C67.6111 4.99746 66.9437 4.32812 66.1053 4.32812C65.3009 4.32812 64.6165 4.99746 64.6165 5.82125C64.6165 6.64503 65.3009 7.31437 66.1053 7.31437ZM64.9415 17.3029H67.286V8.72165H64.9415V17.3029Z" fill="white"/>
<path d="M69.3665 17.3051H71.7109V13.1175C71.7109 11.4699 72.5152 10.6805 73.6103 10.6805C74.5858 10.6805 75.1163 11.4356 75.1163 12.6713V17.3051H77.4608V12.2765C77.4608 10.0454 76.2287 8.53516 74.158 8.53516C73.0457 8.53516 72.1729 9.01573 71.7109 9.70223V8.72391H69.3665V17.3051Z" fill="white"/>
<path d="M83.4268 15.074C82.246 15.074 81.2535 14.1816 81.2535 12.8772C81.2535 11.5557 82.246 10.6805 83.4268 10.6805C84.6075 10.6805 85.6002 11.5557 85.6002 12.8772C85.6002 14.1816 84.6075 15.074 83.4268 15.074ZM83.153 21.0637C85.7712 21.0637 87.7562 19.725 87.7562 16.6358V8.72391H85.4116V9.685C84.95 9.01573 84.0258 8.53516 82.9305 8.53516C80.6887 8.53516 78.8919 10.4573 78.8919 12.8772C78.8919 15.2799 80.6887 17.2021 82.9305 17.2021C84.0258 17.2021 84.95 16.7044 85.4116 16.0694V16.6529C85.4116 18.0259 84.5049 19.0042 83.1187 19.0042C82.1604 19.0042 81.2021 18.678 80.4491 17.9401L79.1657 19.6907C80.1411 20.6346 81.6641 21.0637 83.153 21.0637Z" fill="white"/>
<path d="M92.7131 17.3025H94.9205L99.9516 5.11719H97.2137L93.8256 13.5782L90.3862 5.11719H87.6988L92.7131 17.3025Z" fill="white"/>
<path d="M102.102 7.31437C102.941 7.31437 103.609 6.64503 103.609 5.82125C103.609 4.99746 102.941 4.32812 102.102 4.32812C101.298 4.32812 100.614 4.99746 100.614 5.82125C100.614 6.64503 101.298 7.31437 102.102 7.31437ZM100.939 17.3029H103.284V8.72165H100.939V17.3029Z" fill="white"/>
<path d="M109.351 17.4939C111.148 17.4939 112.517 16.7387 113.321 15.5717L111.576 14.2674C111.182 14.8681 110.446 15.3486 109.368 15.3486C108.238 15.3486 107.229 14.7136 107.092 13.5637H113.492C113.543 13.2033 113.526 12.963 113.526 12.7571C113.526 9.95958 111.558 8.53516 109.316 8.53516C106.716 8.53516 104.816 10.4745 104.816 13.0145C104.816 15.7262 106.801 17.4939 109.351 17.4939ZM107.177 11.9676C107.4 10.9207 108.376 10.4745 109.248 10.4745C110.121 10.4745 110.976 10.9379 111.182 11.9676H107.177Z" fill="white"/>
<path d="M122.31 17.3039H124.638L127.461 8.72266H124.946L123.337 14.2146L121.591 8.72266H119.794L118.066 14.2146L116.441 8.72266H113.942L116.783 17.3039H119.11L120.701 12.4298L122.31 17.3039Z" fill="white"/>
<path fill-rule="evenodd" clip-rule="evenodd" d="M9.95628 17.3105H5.45329V9.63324H0.5V5.11719H9.95628V17.3105ZM16.7108 7.82682C16.7108 9.32327 15.5012 10.5365 14.009 10.5365C12.5168 10.5365 11.3072 9.32327 11.3072 7.82682C11.3072 6.33033 12.5168 5.11719 14.009 5.11719C15.5012 5.11719 16.7108 6.33033 16.7108 7.82682ZM14.009 17.3105L19.1874 5.11719H24.591L19.4126 17.3105H14.009Z" fill="white"/>
</g>
<defs>
<clipPath id="clip0_8014_1365">
<rect width="127" height="21.7066" fill="white" transform="translate(0.5 0.148438)"/>
</clipPath>
</defs>
</svg>
