<svg width="72" height="72" viewBox="0 0 72 72" fill="none" xmlns="http://www.w3.org/2000/svg">
<g clip-path="url(#clip0_7057_5572)">
<path d="M64.4047 25.5132H67.5102V70.4475H64.4047V25.5132ZM35.9534 47.9922H39.059V70.4475H35.9534V47.9922ZM4.49219 52.4834H7.59777V70.4475H4.49219V52.4834ZM22.4565 38.9863H25.5621V70.4475H22.4565V38.9863Z" fill="white"/>
<path d="M38.8269 30.972L61.6585 8.09521L63.8566 10.2891L41.0251 33.1661L38.8269 30.972ZM26.0971 26.7982L28.289 24.5982L34.6858 30.9713L32.4939 33.1715L26.0971 26.7982ZM8.13457 36.2032L19.739 24.5987L21.9349 26.7948L10.3307 38.399L8.13457 36.2032ZM0.046875 68.8946H71.9515V72.0001H0.046875V68.8946Z" fill="#FF8D07"/>
<path d="M65.9563 0C62.612 0 59.9125 2.69933 59.9125 6.04388C59.9125 9.38842 62.6118 12.0878 65.9563 12.0878C69.3009 12.0878 72.0002 9.38842 72.0002 6.04388C72 2.69933 69.3007 0 65.9563 0ZM65.9563 8.98217C64.332 8.98217 63.0181 7.66822 63.0181 6.04388C63.0181 4.41953 64.332 3.10559 65.9563 3.10559C67.5807 3.10559 68.8946 4.41953 68.8946 6.04388C68.8946 7.66822 67.5807 8.98217 65.9563 8.98217ZM6.04388 34.4472C2.69933 34.4472 0 37.1468 0 40.4911C0 43.8354 2.69933 46.535 6.04388 46.535C9.38842 46.535 12.0878 43.8356 12.0878 40.4911C12.0878 37.1465 9.3882 34.4472 6.04388 34.4472ZM6.04388 43.4294C4.41953 43.4294 3.10559 42.1154 3.10559 40.4911C3.10559 38.8667 4.41953 37.5528 6.04388 37.5528C7.66822 37.5528 8.98217 38.8667 8.98217 40.4911C8.98217 42.1154 7.66822 43.4294 6.04388 43.4294ZM24.008 16.4831C20.6637 16.4831 17.9641 19.1824 17.9641 22.527C17.9641 25.8713 20.6634 28.5708 24.008 28.5708C27.3523 28.5708 30.0519 25.8715 30.0519 22.527C30.0519 19.1824 27.3523 16.4831 24.008 16.4831ZM24.008 25.4653C22.3836 25.4653 21.0697 24.1513 21.0697 22.527C21.0697 20.9026 22.3836 19.5887 24.008 19.5887C25.6323 19.5887 26.9463 20.9026 26.9463 22.527C26.9463 24.1513 25.6323 25.4653 24.008 25.4653ZM36.7405 29.2156C33.3962 29.2156 30.6966 31.9149 30.6966 35.2595C30.6966 38.6038 33.396 41.3034 36.7405 41.3034C40.0851 41.3034 42.7844 38.604 42.7844 35.2595C42.7844 31.9152 40.0851 29.2156 36.7405 29.2156ZM36.7405 38.1978C35.1162 38.1978 33.8022 36.8838 33.8022 35.2595C33.8022 33.6351 35.1162 32.3212 36.7405 32.3212C38.3649 32.3212 39.6788 33.6351 39.6788 35.2595C39.6788 36.8838 38.3651 38.1978 36.7405 38.1978Z" fill="white"/>
</g>
<defs>
<clipPath id="clip0_7057_5572">
<rect width="72" height="72" fill="white"/>
</clipPath>
</defs>
</svg>
