<svg width="61" height="56" viewBox="0 0 61 56" fill="none" xmlns="http://www.w3.org/2000/svg">
<path d="M20 25L29.5 52.5H31L41 25.5L20 25Z" fill="#FF8D07"/>
<path d="M60.687 20.7478C60.8759 20.5241 60.9855 20.2443 60.9987 19.9519C61.0118 19.6595 60.9279 19.371 60.76 19.1313L51.4774 5.8704C51.2994 5.61361 51.0356 5.4288 50.7334 5.34924L30.8421 0.0448948C30.618 -0.0149649 30.382 -0.0149649 30.1579 0.0448948L10.2666 5.34924C9.96442 5.4288 9.70061 5.61361 9.52263 5.8704L0.240017 19.1313C0.0720715 19.371 -0.0118443 19.6595 0.00134835 19.9519C0.014541 20.2443 0.124101 20.5241 0.312952 20.7478L29.4869 55.226C29.6113 55.3734 29.7665 55.4919 29.9415 55.5731C30.1165 55.6544 30.3071 55.6965 30.5 55.6965C30.6929 55.6965 30.8835 55.6544 31.0585 55.5731C31.2335 55.4919 31.3886 55.3734 31.5131 55.226L60.687 20.7478ZM30.5 15.2564L38.1555 23.8694H22.8445L30.5 15.2564ZM39.2164 26.5216L30.5 50.4906L21.7836 26.5216H39.2164ZM42.1232 26.2842L55.8455 22.3643L34.2833 47.845L42.1232 26.2842ZM43.6428 23.0923L50.5823 9.21479L57.5203 19.1273L43.6428 23.0923ZM40.7997 22.8496L32.8273 13.8826L47.7736 8.9005L40.7997 22.8496ZM20.2003 22.8496L13.2264 8.9005L28.1727 13.8826L20.2003 22.8496ZM17.3572 23.0923L3.47965 19.1273L10.4177 9.21479L17.3572 23.0923ZM18.8768 26.2842L26.7167 47.845L5.1545 22.3643L18.8768 26.2842ZM30.5 2.6984L45.7739 6.77081L30.5 11.863L15.2261 6.77081L30.5 2.6984Z" fill="white"/>
</svg>
