<svg width="72" height="72" viewBox="0 0 72 72" fill="none" xmlns="http://www.w3.org/2000/svg">
<path d="M57.5238 46.5221C57.2584 46.3861 56.95 46.361 56.6662 46.4521C56.3823 46.5432 56.1462 46.7431 56.0095 47.0081C54.3412 50.2475 51.91 53.0324 48.9254 55.1227C48.6809 55.2938 48.5144 55.555 48.4625 55.8489C48.4106 56.1428 48.4775 56.4453 48.6486 56.6898C48.8198 56.9343 49.081 57.1008 49.3749 57.1527C49.6688 57.2046 49.9713 57.1377 50.2158 56.9666C53.4995 54.6655 56.1746 51.6008 58.0109 48.0363C58.147 47.7709 58.1722 47.4623 58.0809 47.1783C57.9895 46.8944 57.7891 46.6583 57.5238 46.5221Z" fill="white"/>
<path d="M56.2469 36.7178C56.241 31.349 54.1056 26.2018 50.3093 22.4054C46.5129 18.6091 41.3657 16.4737 35.9969 16.4678C9.13194 17.5804 9.14094 55.8585 35.9969 56.9678C41.3657 56.9618 46.5129 54.8264 50.3093 51.0301C54.1056 47.2338 56.241 42.0866 56.2469 36.7178ZM35.9969 54.7178C31.2247 54.7124 26.6494 52.8143 23.2749 49.4398C19.9004 46.0653 18.0023 41.49 17.9969 36.7178C18.9869 12.8385 53.0114 12.8453 53.9969 36.7178C53.9916 41.49 52.0934 46.0653 48.7189 49.4398C45.3444 52.8143 40.7692 54.7124 35.9969 54.7178Z" fill="white"/>
<path d="M49.9162 33.3305C49.7784 32.9057 49.539 32.521 49.2189 32.2097C48.8987 31.8984 48.5075 31.6699 48.0791 31.544L41.9039 29.7237L38.2646 24.4137C38.0123 24.0453 37.674 23.7439 37.279 23.5356C36.884 23.3273 36.4442 23.2185 35.9977 23.2185C35.5511 23.2185 35.1113 23.3273 34.7163 23.5356C34.3213 23.7439 33.9831 24.0453 33.7308 24.4137L30.0914 29.7237L23.9163 31.544C23.4881 31.67 23.0971 31.8984 22.7771 32.2096C22.4571 32.5207 22.2178 32.9052 22.0798 33.3297C21.9419 33.7542 21.9095 34.2059 21.9854 34.6457C22.0614 35.0855 22.2434 35.5002 22.5157 35.8539L26.4419 40.9569L26.2642 47.393C26.2518 47.8393 26.3483 48.282 26.5454 48.6826C26.7425 49.0833 27.0342 49.4299 27.3954 49.6925C27.7566 49.955 28.1763 50.1257 28.6182 50.1896C29.0601 50.2535 29.5109 50.2087 29.9317 50.0592L35.9977 47.8992L42.0648 50.057C42.4854 50.2062 42.936 50.2508 43.3777 50.1868C43.8194 50.1229 44.2388 49.9523 44.5998 49.6899C44.9608 49.4275 45.2525 49.0811 45.4496 48.6807C45.6467 48.2803 45.7434 47.838 45.7312 47.3919L45.5546 40.9569L49.4808 35.8539C49.7532 35.5002 49.9352 35.0854 50.0111 34.6455C50.0869 34.2056 50.0544 33.7538 49.9162 33.3294V33.3305ZM47.6966 34.4825L43.5273 39.9027C43.3695 40.1077 43.2873 40.3608 43.2944 40.6194L43.4823 47.4549C43.4874 47.5365 43.4718 47.6182 43.4369 47.6923C43.4021 47.7664 43.3492 47.8304 43.283 47.8787C43.2169 47.9269 43.1396 47.9576 43.0585 47.9681C42.9773 47.9786 42.8948 47.9684 42.8186 47.9386L36.3746 45.6459C36.1307 45.5595 35.8647 45.5595 35.6208 45.6459L29.1791 47.9375C29.1027 47.9675 29.02 47.9778 28.9387 47.9674C28.8573 47.957 28.7799 47.9263 28.7135 47.8781C28.6471 47.8299 28.594 47.7658 28.5589 47.6916C28.5239 47.6174 28.5081 47.5356 28.5131 47.4537L28.7009 40.6182C28.7078 40.3601 28.6256 40.1074 28.4681 39.9027L24.2988 34.4814C24.2468 34.4183 24.2116 34.3432 24.1963 34.2629C24.1811 34.1827 24.1863 34.0998 24.2116 34.0221C24.2368 33.9444 24.2812 33.8743 24.3407 33.8183C24.4002 33.7623 24.4728 33.7222 24.5519 33.7017L31.1107 31.7679C31.3592 31.6954 31.5751 31.5392 31.7216 31.3257L35.5871 25.685C35.6309 25.6157 35.6915 25.5587 35.7633 25.5192C35.8351 25.4797 35.9157 25.459 35.9977 25.459C36.0796 25.459 36.1603 25.4797 36.232 25.5192C36.3038 25.5587 36.3645 25.6157 36.4083 25.685L40.2738 31.3257C40.42 31.539 40.6354 31.6952 40.8836 31.7679L47.4434 33.7017C47.5225 33.7224 47.5952 33.7626 47.6546 33.8187C47.7141 33.8749 47.7585 33.945 47.7837 34.0228C47.8089 34.1006 47.8142 34.1835 47.7989 34.2638C47.7837 34.3441 47.7485 34.4193 47.6966 34.4825ZM58.7002 43.3464C58.4215 43.2618 58.1209 43.2887 57.8616 43.4212C57.6023 43.5537 57.4045 43.7817 57.3098 44.057C57.2151 44.3324 57.2309 44.6338 57.3538 44.8978C57.4767 45.1618 57.6972 45.3678 57.9689 45.4726C58.2476 45.5571 58.5482 45.5303 58.8075 45.3978C59.0668 45.2652 59.2646 45.0373 59.3593 44.7619C59.454 44.4865 59.4383 44.1852 59.3153 43.9212C59.1924 43.6572 58.9719 43.4511 58.7002 43.3464ZM15.9862 26.4275C17.6545 23.1881 20.0857 20.4031 23.0703 18.3129C23.3086 18.1394 23.4694 17.8793 23.5179 17.5885C23.5664 17.2977 23.4988 16.9995 23.3297 16.758C23.1607 16.5166 22.9035 16.3511 22.6137 16.2972C22.3239 16.2434 22.0245 16.3055 21.7799 16.4701C18.4964 18.7708 15.8212 21.8352 13.9848 25.3992C13.8485 25.6648 13.8232 25.9736 13.9145 26.2578C14.0059 26.542 14.2064 26.7783 14.4719 26.9146C14.7375 27.051 15.0463 27.0762 15.3305 26.9849C15.6147 26.8935 15.851 26.693 15.9873 26.4275H15.9862ZM14.0264 27.9564C13.8861 27.9083 13.7377 27.8884 13.5896 27.8978C13.4416 27.9071 13.2968 27.9456 13.1636 28.0109C12.8946 28.1427 12.689 28.376 12.5921 28.6595C12.4951 28.9429 12.5147 29.2533 12.6466 29.5223C12.7784 29.7913 13.0117 29.9969 13.2952 30.0939C13.5786 30.1908 13.889 30.1712 14.158 30.0394C14.427 29.9075 14.6326 29.6742 14.7296 29.3907C14.8265 29.1073 14.8069 28.7969 14.6751 28.5279C14.5432 28.2589 14.3099 28.0533 14.0264 27.9564Z" fill="#FF8D07"/>
<path d="M68.6237 24.1875C68.922 24.1875 69.2082 24.069 69.4191 23.858C69.6301 23.647 69.7487 23.3609 69.7487 23.0625C69.7487 22.7642 69.6301 22.478 69.4191 22.267C69.2082 22.056 68.922 21.9375 68.6237 21.9375C67.2815 21.936 65.9946 21.4022 65.0456 20.4531C64.0965 19.504 63.5626 18.2172 63.5612 16.875C63.5632 16.7054 63.5259 16.5375 63.4521 16.3847C63.3784 16.2319 63.2702 16.0983 63.1362 15.9943C63.0021 15.8903 62.8458 15.8188 62.6794 15.7854C62.5131 15.752 62.3412 15.7576 62.1774 15.8018C61.2944 15.2455 60.3154 14.8586 59.2907 14.661C60.1206 14.3691 60.9939 14.2192 61.8737 14.2178C62.172 14.2178 62.4582 14.0992 62.6691 13.8883C62.8801 13.6773 62.9987 13.3911 62.9987 13.0928C62.9987 12.7944 62.8801 12.5083 62.6691 12.2973C62.4582 12.0863 62.172 11.9678 61.8737 11.9678C59.7858 11.9654 57.7841 11.1349 56.3078 9.65861C54.8315 8.18228 54.001 6.18062 53.9987 4.09277C53.9987 3.7944 53.8801 3.50826 53.6691 3.29728C53.4582 3.0863 53.172 2.96777 52.8737 2.96777C52.5753 2.96777 52.2891 3.0863 52.0782 3.29728C51.8672 3.50826 51.7487 3.7944 51.7487 4.09277C51.7489 5.7162 51.244 7.29948 50.3042 8.62315C47.8809 3.74627 44.7309 3.48077 40.1409 6.02777C38.8727 6.7854 37.4632 7.27617 35.9987 7.47002C34.534 7.27589 33.1245 6.78473 31.8564 6.02665C26.543 3.09715 23.7249 4.15352 21.1723 9.59852C20.6244 10.8966 19.821 12.0711 18.8098 13.0523C17.5461 13.7298 16.1579 14.1432 14.7294 14.2673C8.74891 15.021 6.93991 17.4263 8.07841 23.3865C8.39954 24.7948 8.43321 26.2534 8.17741 27.675C7.56402 28.9211 6.70715 30.0315 5.65741 30.9409C1.16191 35.1259 1.13941 38.3006 5.65741 42.5003C6.70638 43.4087 7.56284 44.518 8.17629 45.7628C8.43332 47.185 8.40003 48.6445 8.07841 50.0535C6.95004 55.9856 8.72191 58.4235 14.7294 59.1728C16.1578 59.2969 17.5461 59.7103 18.8098 60.3878C19.822 61.3685 20.6263 62.5431 21.1745 63.8415C23.7283 69.2843 26.5655 70.3463 31.8564 67.4134C33.1243 66.655 34.534 66.1638 35.9987 65.97C37.4634 66.1637 38.873 66.6549 40.1409 67.4134C45.452 70.344 48.2702 69.2809 50.8228 63.8404C51.3711 62.542 52.1753 61.3674 53.1875 60.3866C54.4512 59.7091 55.8394 59.2957 57.2679 59.1716C63.2405 58.4246 65.0608 56.0126 63.9189 50.0535C63.5979 48.6456 63.5643 47.1874 63.8199 45.7661C65.0428 42.7826 69.869 40.3594 69.7487 36.72C69.7689 33.1121 65.333 30.6956 63.7907 27.8246C64.0962 26.7782 64.7319 25.8587 65.6029 25.2032C66.4739 24.5477 67.5335 24.1914 68.6237 24.1875ZM52.8737 8.7289C53.8427 10.5997 55.3676 12.1242 57.2387 13.0928C55.3857 14.0858 53.8672 15.6039 52.8737 17.4566C51.9048 15.5854 50.3799 14.0605 48.5087 13.0916C50.3713 12.1127 51.8933 10.5919 52.8737 8.73002V8.7289ZM64.7345 32.517C66.0935 33.903 67.4987 35.3363 67.4987 36.72C67.2579 39.6608 62.4902 42.1031 61.6802 45.0709C61.2924 46.8178 61.2963 48.6289 61.6914 50.3741C61.9625 52.2529 62.2427 54.1924 61.4799 55.242C59.5449 57.4144 54.2394 56.6179 51.8612 58.5709C49.2928 60.246 48.4187 65.5414 45.731 66.6889C42.9039 67.2525 39.08 63.522 35.9987 63.7189C32.9229 63.5243 29.0889 67.257 26.2674 66.6889C23.5753 65.538 22.7102 60.246 20.1362 58.5709C17.7602 56.6213 12.4445 57.4155 10.5163 55.2409C9.75466 54.1924 10.0348 52.2518 10.3048 50.3741C11.126 46.1531 10.4533 43.8469 7.26391 40.9253C3.64704 37.4411 3.62229 36.0146 7.26391 32.5148C10.4612 29.592 11.1227 27.2779 10.3048 23.0648C9.47229 18.2138 10.2103 17.1844 15.1085 16.4858C19.4049 15.9773 21.3658 14.5755 23.1669 10.6403C25.3269 6.27977 26.4665 5.69815 30.8619 8.04602C40.1994 14.0231 44.2528 0.673898 48.665 10.3275C47.2939 11.3902 45.6084 11.9672 43.8737 11.9678C43.5753 11.9678 43.2891 12.0863 43.0782 12.2973C42.8672 12.5083 42.7487 12.7944 42.7487 13.0928C42.7487 13.3911 42.8672 13.6773 43.0782 13.8883C43.2891 14.0992 43.5753 14.2178 43.8737 14.2178C45.9615 14.2202 47.9632 15.0506 49.4395 16.5269C50.9158 18.0033 51.7463 20.0049 51.7487 22.0928C51.7487 22.3911 51.8672 22.6773 52.0782 22.8883C52.2891 23.0992 52.5753 23.2178 52.8737 23.2178C53.172 23.2178 53.4582 23.0992 53.6691 22.8883C53.8801 22.6773 53.9987 22.3911 53.9987 22.0928C53.9988 21.0302 54.2148 19.9788 54.6335 19.0022C55.0522 18.0256 55.6648 17.1443 56.4343 16.4115C58.196 16.7153 60.2818 17.01 61.2043 17.9033C60.9665 19.0422 60.3443 20.0648 59.442 20.7993C58.5397 21.5339 57.4122 21.9357 56.2487 21.9375C55.9503 21.9375 55.6641 22.056 55.4532 22.267C55.2422 22.478 55.1237 22.7642 55.1237 23.0625C55.1237 23.3609 55.2422 23.647 55.4532 23.858C55.6641 24.069 55.9503 24.1875 56.2487 24.1875C57.5909 24.189 58.8777 24.7229 59.8267 25.6719C60.7758 26.621 61.3097 27.9078 61.3112 29.25C61.3101 29.4253 61.3506 29.5983 61.4294 29.7549C61.5083 29.9114 61.6232 30.047 61.7646 30.1505C61.9061 30.2539 62.0701 30.3223 62.2432 30.35C62.4163 30.3777 62.5935 30.3639 62.7602 30.3098C63.371 31.0865 64.0305 31.8237 64.7345 32.517ZM62.4362 25.3575C61.851 24.432 61.067 23.6484 60.1412 23.0636C61.0671 22.4786 61.8511 21.6946 62.4362 20.7686C63.0212 21.6946 63.8052 22.4786 64.7312 23.0636C63.8052 23.6487 63.0212 24.4316 62.4362 25.3575Z" fill="white"/>
</svg>
