<svg width="54" height="54" viewBox="0 0 54 54" fill="none" xmlns="http://www.w3.org/2000/svg">
<g clip-path="url(#clip0_7057_5586)">
<path d="M50.625 23.625C50.3266 23.625 50.0405 23.5065 49.8295 23.2955C49.6185 23.0845 49.5 22.7984 49.5 22.5C49.5 15.8895 46.926 9.67275 42.2505 4.9995C42.0456 4.78732 41.9322 4.50315 41.9347 4.20817C41.9373 3.9132 42.0556 3.63104 42.2642 3.42245C42.4728 3.21387 42.7549 3.09556 43.0499 3.09299C43.3449 3.09043 43.6291 3.20382 43.8412 3.40875C46.3568 5.90963 48.3511 8.88479 49.7087 12.1619C51.0662 15.439 51.7601 18.9529 51.75 22.5C51.75 22.7984 51.6315 23.0845 51.4205 23.2955C51.2095 23.5065 50.9234 23.625 50.625 23.625ZM3.375 23.625C3.07663 23.625 2.79048 23.5065 2.5795 23.2955C2.36853 23.0845 2.25 22.7984 2.25 22.5C2.25 15.2865 5.058 8.50725 10.1587 3.40875C10.3709 3.20382 10.6551 3.09043 10.9501 3.09299C11.245 3.09556 11.5272 3.21387 11.7358 3.42245C11.9444 3.63104 12.0627 3.9132 12.0653 4.20817C12.0678 4.50315 11.9544 4.78732 11.7495 4.9995C9.44372 7.2921 7.61569 10.0194 6.37129 13.0234C5.1269 16.0274 4.49085 19.2485 4.5 22.5C4.5 22.7984 4.38147 23.0845 4.1705 23.2955C3.95952 23.5065 3.67337 23.625 3.375 23.625ZM30.375 9.405C30.0766 9.405 29.7905 9.28647 29.5795 9.0755C29.3685 8.86452 29.25 8.57837 29.25 8.28V4.5C29.25 3.26025 28.2397 2.25 27 2.25C25.7602 2.25 24.75 3.26025 24.75 4.5V8.28C24.75 8.57837 24.6315 8.86452 24.4205 9.0755C24.2095 9.28647 23.9234 9.405 23.625 9.405C23.3266 9.405 23.0405 9.28647 22.8295 9.0755C22.6185 8.86452 22.5 8.57837 22.5 8.28V4.5C22.5 2.01825 24.5182 0 27 0C29.4817 0 31.5 2.01825 31.5 4.5V8.28C31.5 8.57837 31.3815 8.86452 31.1705 9.0755C30.9595 9.28647 30.6734 9.405 30.375 9.405ZM27 54C22.6575 54 19.125 50.4675 19.125 46.125C19.125 45.8266 19.2435 45.5405 19.4545 45.3295C19.6655 45.1185 19.9516 45 20.25 45C20.5484 45 20.8345 45.1185 21.0455 45.3295C21.2565 45.5405 21.375 45.8266 21.375 46.125C21.375 49.2255 23.8995 51.75 27 51.75C30.1005 51.75 32.625 49.2255 32.625 46.125C32.625 45.8266 32.7435 45.5405 32.9545 45.3295C33.1655 45.1185 33.4516 45 33.75 45C34.0484 45 34.3345 45.1185 34.5455 45.3295C34.7565 45.5405 34.875 45.8266 34.875 46.125C34.875 50.4675 31.3425 54 27 54Z" fill="#FF8D07"/>
<path d="M46.1254 47.25H7.87544C7.18665 47.2476 6.51504 47.0348 5.95058 46.64C5.38611 46.2453 4.95574 45.6875 4.71711 45.0413C4.47847 44.3952 4.44298 43.6916 4.61537 43.0247C4.78777 42.3578 5.15982 41.7595 5.68169 41.31C7.42696 39.8409 8.82976 38.0078 9.79173 35.9393C10.7537 33.8707 11.2516 31.6168 11.2504 29.3355V22.5C11.2504 13.815 18.3154 6.75 27.0004 6.75C35.6854 6.75 42.7504 13.815 42.7504 22.5V29.3355C42.7504 33.9548 44.7732 38.313 48.3012 41.2943C48.8291 41.7408 49.2073 42.3387 49.3845 43.0071C49.5618 43.6754 49.5296 44.3821 49.2923 45.0316C49.055 45.6811 48.6241 46.2421 48.0578 46.6389C47.4914 47.0356 46.8169 47.2489 46.1254 47.25ZM27.0004 9C19.5552 9 13.5004 15.0548 13.5004 22.5V29.3355C13.5029 31.9401 12.9361 34.5138 11.8397 36.8765C10.7434 39.2391 9.14385 41.3336 7.15319 43.0133C6.97641 43.1616 6.84954 43.3607 6.78977 43.5837C6.73 43.8066 6.74024 44.0425 6.81909 44.2594C6.89794 44.4763 7.04158 44.6637 7.23055 44.7962C7.41952 44.9286 7.64466 44.9998 7.87544 45H46.1254C46.3554 45 46.5799 44.9295 46.7686 44.7981C46.9573 44.6666 47.1012 44.4805 47.1809 44.2648C47.2605 44.049 47.2722 43.814 47.2142 43.5915C47.1563 43.3689 47.0315 43.1695 46.8567 43.02C44.8642 41.3398 43.263 39.2445 42.1651 36.8808C41.0671 34.517 40.499 31.9418 40.5004 29.3355V22.5C40.5004 15.0548 34.4457 9 27.0004 9Z" fill="white"/>
</g>
<defs>
<clipPath id="clip0_7057_5586">
<rect width="54" height="54" fill="white"/>
</clipPath>
</defs>
</svg>
