<svg width="72" height="72" viewBox="0 0 72 72" fill="none" xmlns="http://www.w3.org/2000/svg">
<g clip-path="url(#clip0_7057_5600)">
<path d="M2.4 62.4V57.6H4.8V55.2H2.4V50.4H7.2V48H2.4V43.2H4.8V40.8H2.4V36H7.2V33.6H2.4V28.8H4.8V26.4H2.4V21.6H7.2V19.2H2.4V14.4H4.8V12H2.4V7.2H7.2V4.8H2.4V0H0V63.6C0 63.9183 0.126428 64.2235 0.351472 64.4485C0.576516 64.6736 0.88174 64.8 1.2 64.8H72V62.4H2.4ZM12 67.2H14.4V72H12V67.2ZM16.8 67.2H19.2V72H16.8V67.2ZM28.8 67.2H31.2V72H28.8V67.2ZM33.6 67.2H36V72H33.6V67.2ZM45.6 67.2H48V72H45.6V67.2ZM50.4 67.2H52.8V72H50.4V67.2ZM62.4 67.2H64.8V72H62.4V67.2ZM67.2 67.2H69.6V72H67.2V67.2Z" fill="white"/>
<path d="M12.9773 59.2345C13.7585 59.738 14.6691 60.0039 15.5986 59.9999C18.2495 59.9999 20.3986 57.8509 20.3986 55.1999C20.3933 54.4096 20.1904 53.6333 19.8082 52.9415L29.4154 45.7355C31.4722 47.3804 34.4732 47.0465 36.1181 44.9897C36.2633 44.8082 36.395 44.6163 36.5122 44.4155L44.407 46.6799C44.407 46.7195 44.3986 46.7591 44.3986 46.7999C44.3986 49.4509 46.5476 51.5999 49.1986 51.5999C51.8495 51.5999 53.9986 49.4509 53.9986 46.7999V46.7915C53.989 45.7599 53.6473 44.7589 53.0242 43.9367L63.7042 30.5903C64.4051 30.9843 65.1945 31.1941 65.9986 31.1999C68.6693 31.2199 70.8506 29.0708 70.8704 26.4001C70.8902 23.7293 68.7413 21.548 66.0706 21.5282C63.3998 21.5083 61.2185 23.6573 61.1987 26.3281C61.1918 27.2539 61.4508 28.1622 61.945 28.9451L51.145 42.4451C50.9505 42.3549 50.7501 42.2783 50.545 42.2159C48.4462 41.6102 46.2032 42.4979 45.0874 44.3759L37.1902 42.1199C37.1902 42.0803 37.1986 42.0407 37.1986 41.9999C37.202 39.86 35.7947 37.9739 33.7426 37.3679C31.2176 36.6121 28.5578 38.0464 27.802 40.5713C27.4826 41.6383 27.5464 42.7834 27.9824 43.8083L18.1784 51.1655C15.9503 49.7293 12.9796 50.3711 11.5433 52.5994C10.1072 54.8275 10.7492 57.7981 12.9773 59.2345ZM65.9986 23.9999C67.3241 23.9999 68.3986 25.0744 68.3986 26.3999C68.3986 27.7255 67.3241 28.7999 65.9986 28.7999C64.673 28.7999 63.5986 27.7255 63.5986 26.3999C63.5986 25.0744 64.673 23.9999 65.9986 23.9999ZM46.8946 46.1519C47.2643 44.8915 48.586 44.1695 49.8463 44.5393C51.1067 44.909 51.8287 46.2307 51.4589 47.491C51.0892 48.7514 49.7675 49.4734 48.5072 49.1036C48.0091 48.9575 47.5725 48.6524 47.264 48.235C46.9555 47.8175 46.792 47.3106 46.7986 46.7915C46.7975 46.5746 46.8299 46.3589 46.8946 46.1519ZM30.0943 41.3051C30.1814 41.0018 30.3279 40.7188 30.5253 40.4726C30.7228 40.2265 30.9672 40.022 31.2443 39.8711C32.4064 39.2335 33.8653 39.6587 34.5029 40.8208C34.6997 41.1794 34.8016 41.5824 34.7987 41.9915V42.0083C34.7998 42.2252 34.7674 42.4409 34.7027 42.6479C34.3319 43.9205 32.9998 44.6515 31.7272 44.2807C30.4544 43.91 29.7235 42.5777 30.0943 41.3051ZM15.5986 52.7999C16.9241 52.7999 17.9986 53.8744 17.9986 55.1999C17.9986 56.5255 16.9241 57.5999 15.5986 57.5999C14.273 57.5999 13.1986 56.5255 13.1986 55.1999C13.1986 53.8744 14.273 52.7999 15.5986 52.7999Z" fill="#FF8D07"/>
<path d="M15.6008 42C18.2397 42.0122 20.3889 39.8826 20.4011 37.2435C20.4067 36.0487 19.9643 34.8951 19.1612 34.0104L30.9344 15.3468C31.6663 15.6005 32.4504 15.6649 33.2139 15.5342C33.9773 15.4035 34.6954 15.0819 35.3012 14.5992L44.8112 22.08C43.7388 24.4964 44.8284 27.3246 47.2449 28.397C47.8607 28.6702 48.5271 28.8104 49.2008 28.8084H49.2116C51.8616 28.8024 54.0054 26.6501 54.0008 24C53.9997 23.5687 53.9399 23.1396 53.8232 22.7244L62.4704 17.6556C62.9191 18.1454 63.4645 18.5367 64.0722 18.8048C64.6799 19.0729 65.3366 19.212 66.0008 19.2132H66.0188C68.6738 19.2072 70.8212 17.0502 70.8152 14.3952C70.8092 11.7402 68.6522 9.5928 65.9972 9.5988C63.3437 9.6048 61.1969 11.7597 61.2008 14.4132C61.2051 14.7918 61.253 15.1688 61.3436 15.5364L52.6208 20.64C52.1738 20.1869 51.6414 19.8271 51.0543 19.5814C50.4672 19.3356 49.8372 19.2089 49.2008 19.2084H49.1876C48.1442 19.215 47.1321 19.565 46.3076 20.2044L36.794 12.72C37.8645 10.2948 36.7664 7.461 34.3413 6.3903C31.9163 5.3196 29.0823 6.4179 28.0116 8.84295C27.631 9.70521 27.5126 10.6605 27.6713 11.5895C27.83 12.5186 28.2587 13.3804 28.904 14.0675L17.1608 32.682C16.6603 32.5011 16.1329 32.4058 15.6008 32.4C12.9498 32.4 10.8008 34.5491 10.8008 37.2C10.8008 39.851 12.9498 42 15.6008 42ZM66.0008 12C67.3263 12 68.4008 13.0745 68.4008 14.4C68.4054 15.7254 67.3347 16.8038 66.0092 16.8084H66.0008C65.5789 16.809 65.1643 16.6984 64.7988 16.4877C64.4333 16.2771 64.1297 15.9738 63.9188 15.6084C63.7152 15.2378 63.606 14.8228 63.6008 14.4C63.6008 13.0745 64.6752 12 66.0008 12ZM49.2008 21.6084C50.5263 21.6084 51.6008 22.6829 51.6008 24.0084C51.6008 25.334 50.5263 26.4084 49.2008 26.4084C47.8752 26.4084 46.8008 25.334 46.8008 24.0084C46.8008 22.6829 47.8752 21.6084 49.2008 21.6084ZM32.4008 8.4C33.7263 8.4 34.8008 9.47445 34.8008 10.8C34.8008 12.1256 33.7263 13.2 32.4008 13.2C31.0752 13.2 30.0008 12.1256 30.0008 10.8C30.0008 9.47445 31.0752 8.4 32.4008 8.4ZM15.6008 34.8C16.9263 34.8 18.0008 35.8745 18.0008 37.2C18.0008 38.5256 16.9263 39.6 15.6008 39.6C14.2752 39.6 13.2008 38.5256 13.2008 37.2C13.2008 35.8745 14.2752 34.8 15.6008 34.8Z" fill="white"/>
</g>
<defs>
<clipPath id="clip0_7057_5600">
<rect width="72" height="72" fill="white"/>
</clipPath>
</defs>
</svg>
