<svg width="66" height="66" viewBox="0 0 66 66" fill="none" xmlns="http://www.w3.org/2000/svg">
<g clip-path="url(#clip0_7057_5579)">
<path d="M18.5 5C14.1667 19 5.3 47.3 4.5 48.5H6.5L32 13L33 8L26 4.5L21 3.5L18.5 5Z" fill="#FF8D07"/>
<path d="M62.0048 48.4407L62.1148 48.3989C62.6579 48.2008 63.1567 47.8975 63.5826 47.5065C64.0085 47.1156 64.3532 46.6445 64.5969 46.1202C64.8407 45.5959 64.9787 45.0288 65.0031 44.4511C65.0276 43.8735 64.9379 43.2967 64.7393 42.7537L61.7253 34.4927C61.439 33.6967 60.927 33.0012 60.2519 32.4914C59.5768 31.9815 58.7678 31.6793 57.9238 31.6217C58.3264 30.8779 58.5043 30.0331 58.4358 29.1901C58.3672 28.3471 58.0552 27.5421 57.5377 26.8731L52.1718 19.9024C51.6614 19.2271 50.9644 18.7161 50.1668 18.4324C49.3692 18.1488 48.5061 18.1049 47.6838 18.3062C47.84 17.4764 47.7541 16.6192 47.4364 15.8368C47.1186 15.0545 46.5825 14.3801 45.8919 13.8942L38.6848 8.84516C37.991 8.36207 37.1727 8.08907 36.3278 8.05883C35.4829 8.02858 34.6472 8.24237 33.9206 8.67462C33.8598 8.14842 33.7044 7.63754 33.462 7.16654C33.197 6.65412 32.8325 6.1997 32.3898 5.82988C31.9471 5.46006 31.435 5.18227 30.8836 5.01278L22.4972 2.36066C20.655 1.78793 18.6548 2.48454 17.5671 4.07782C17.4034 1.78471 15.4988 0.00631641 13.2 0H4.39996C1.96995 0 0 1.96995 0 4.39996V61.5999C0 64.0301 1.96995 66 4.39996 66H61.5999C64.0301 66 66 64.0301 66 61.6V52.8C65.9933 50.5334 64.2622 48.6446 62.0048 48.4407ZM59.664 35.2473L62.678 43.5095C62.7772 43.781 62.822 44.0693 62.8098 44.3582C62.7976 44.647 62.7286 44.9305 62.6067 45.1927C62.4848 45.4548 62.3125 45.6903 62.0996 45.8858C61.8866 46.0813 61.6373 46.2329 61.3657 46.332L55.7074 48.4H17.2216L54.2916 34.87C54.3264 34.8579 54.3602 34.8432 54.3928 34.8261L56.8447 33.9362C57.1162 33.837 57.4046 33.7922 57.6934 33.8044C57.9822 33.8166 58.2658 33.8856 58.5279 34.0075C58.79 34.1294 59.0255 34.3017 59.221 34.5146C59.4165 34.7276 59.5681 34.977 59.6672 35.2485L59.664 35.2473ZM28.6 50.6V63.8H18.7V50.6H28.6ZM30.8 50.6H40.7V63.8H30.8V50.6ZM42.9 50.6H52.8V63.8H42.9V50.6ZM48.9775 20.3974C49.2641 20.4345 49.5404 20.5283 49.7902 20.6733C50.0401 20.8184 50.2586 21.0118 50.4329 21.2422L55.8009 28.2162C55.9773 28.4454 56.1068 28.7073 56.1818 28.9866C56.2569 29.266 56.2761 29.5574 56.2384 29.8443C56.2007 30.1311 56.1068 30.4076 55.9621 30.6581C55.8174 30.9086 55.6247 31.1281 55.395 31.304L53.3754 32.8594L12.7853 47.6751L47.3528 20.8351C47.5808 20.6577 47.842 20.5275 48.121 20.4524C48.4 20.3772 48.6912 20.3585 48.9775 20.3974ZM35.783 10.2839C36.3577 10.1808 36.9499 10.3119 37.4274 10.648L44.6346 15.697C44.8715 15.8626 45.0735 16.0732 45.229 16.3168C45.3845 16.5605 45.4905 16.8323 45.5408 17.117C45.5912 17.4016 45.585 17.6933 45.5225 17.9755C45.4601 18.2577 45.3426 18.5249 45.1769 18.7617L43.6698 20.9144L8.41938 48.2834L34.3629 11.1904C34.5276 10.9526 34.738 10.75 34.9818 10.5944C35.2256 10.4388 35.498 10.3332 35.783 10.2839ZM19.0774 5.89707C19.4418 4.73846 20.6763 4.09445 21.835 4.45822L30.2324 7.11137C31.3865 7.47618 32.0265 8.7071 31.6623 9.86133L30.8924 12.3133L5.72769 48.29L19.0774 5.89707ZM4.39996 2.20004H13.2C14.4151 2.20004 15.4 3.18502 15.4 4.40009V10.2499L3.34177 48.543C2.94084 48.6442 2.55636 48.802 2.19991 49.0116V4.39996C2.20004 3.18502 3.18502 2.20004 4.39996 2.20004ZM2.20004 61.6V52.8C2.20004 51.5849 3.18502 50.6 4.40009 50.6H16.5V63.8H4.39996C3.18502 63.8 2.20004 62.815 2.20004 61.6ZM63.8 61.6C63.8 62.8151 62.815 63.8001 61.5999 63.8001H54.9999V50.6001H61.5999C62.815 50.6001 63.8 51.5851 63.8 52.8001V61.6Z" fill="white"/>
<path d="M7.69844 53.8999C5.87596 53.8999 4.39844 55.3774 4.39844 57.1999C4.39844 59.0224 5.87596 60.4999 7.69844 60.4999C9.52091 60.4999 10.9984 59.0224 10.9984 57.1999C10.9984 55.3774 9.52104 53.8999 7.69844 53.8999ZM7.69844 58.3C7.40671 58.3 7.12693 58.1841 6.92065 57.9778C6.71437 57.7715 6.59848 57.4918 6.59848 57.2C6.59848 56.9083 6.71437 56.6285 6.92065 56.4222C7.12693 56.216 7.40671 56.1001 7.69844 56.1001C7.99016 56.1001 8.26994 56.216 8.47622 56.4222C8.68251 56.6285 8.79839 56.9083 8.79839 57.2C8.79839 57.4918 8.68251 57.7715 8.47622 57.9778C8.26994 58.1841 7.99016 58.3 7.69844 58.3Z" fill="#FF8D07"/>
</g>
<defs>
<clipPath id="clip0_7057_5579">
<rect width="66" height="66" fill="white"/>
</clipPath>
</defs>
</svg>
