<svg width="84" height="84" viewBox="0 0 84 84" fill="none" xmlns="http://www.w3.org/2000/svg">
<path d="M72.8194 12.6395L67.8188 36.6189C67.7138 37.5114 67.1363 38.2464 66.2832 38.5482C65.4038 38.8764 64.4588 38.6664 63.7894 37.997L60.3638 34.5714L47.5144 47.4207C47.3929 47.5422 47.2487 47.6386 47.0899 47.7044C46.9311 47.7702 46.761 47.804 46.5891 47.804C46.4173 47.804 46.2471 47.7702 46.0883 47.7044C45.9296 47.6386 45.7853 47.5422 45.6638 47.4207C45.5423 47.2992 45.4459 47.155 45.3801 46.9962C45.3144 46.8374 45.2805 46.6673 45.2805 46.4954C45.2805 46.3236 45.3144 46.1534 45.3801 45.9946C45.4459 45.8359 45.5423 45.6916 45.6638 45.5701L58.6838 32.537C59.5763 31.6445 61.1382 31.6445 62.0307 32.537L65.2988 35.8051L69.8532 13.9914L47.3569 17.8632L50.6119 21.1182C51.5307 22.037 51.5307 23.5464 50.6119 24.4651L20.6475 54.4426C20.385 54.7051 20.0569 54.8232 19.7157 54.8232C19.3744 54.8232 19.0463 54.692 18.7838 54.4426C18.6621 54.3212 18.5656 54.177 18.4997 54.0182C18.4339 53.8594 18.4 53.6892 18.4 53.5173C18.4 53.3454 18.4339 53.1752 18.4997 53.0164C18.5656 52.8576 18.6621 52.7134 18.7838 52.592L48.5644 22.8114L45.1388 19.3857C44.4825 18.7295 44.2725 17.7714 44.5875 16.892C44.9157 16.0126 45.69 15.422 46.6219 15.3432L71.2969 11.0907C71.73 11.012 72.1632 11.1564 72.465 11.4714C72.78 11.7732 72.9113 12.2195 72.8194 12.6395ZM44.8369 48.2607C44.7155 48.1391 44.5713 48.0425 44.4125 47.9767C44.2537 47.9108 44.0835 47.8769 43.9116 47.8769C43.7397 47.8769 43.5695 47.9108 43.4107 47.9767C43.2519 48.0425 43.1077 48.1391 42.9863 48.2607L30.8325 60.4145C30.6494 60.5978 30.5248 60.8314 30.4747 61.0856C30.4246 61.3398 30.4511 61.6032 30.551 61.8423C30.6508 62.0814 30.8195 62.2854 31.0356 62.4285C31.2516 62.5715 31.5053 62.6471 31.7644 62.6457C32.1057 62.6457 32.4338 62.5145 32.6963 62.2651L44.85 50.1114C45.3488 49.6126 45.3488 48.7726 44.8369 48.2607ZM28.0107 55.8995C27.8892 55.7778 27.745 55.6813 27.5862 55.6154C27.4275 55.5495 27.2573 55.5157 27.0854 55.5157C26.9135 55.5157 26.7433 55.5495 26.5845 55.6154C26.4257 55.6813 26.2815 55.7778 26.16 55.8995L11.5388 70.5076C11.3556 70.6909 11.2311 70.9245 11.1809 71.1787C11.1308 71.4329 11.1574 71.6963 11.2572 71.9354C11.3571 72.1745 11.5258 72.3786 11.7418 72.5216C11.9579 72.6647 12.2116 72.7403 12.4707 72.7389C12.8119 72.7389 13.14 72.6076 13.4025 72.3582L28.0107 57.7501C28.1323 57.6287 28.2289 57.4845 28.2947 57.3257C28.3606 57.1669 28.3945 56.9967 28.3945 56.8248C28.3945 56.6529 28.3606 56.4827 28.2947 56.3239C28.2289 56.1651 28.1323 56.0209 28.0107 55.8995ZM30.5044 54.7182C30.8457 54.7182 31.1738 54.587 31.4363 54.3376L37.6575 48.1164C37.903 47.8709 38.0408 47.5381 38.0408 47.191C38.0408 46.844 37.903 46.5111 37.6575 46.2657C37.536 46.1442 37.3918 46.0478 37.233 45.9821C37.0742 45.9163 36.9041 45.8825 36.7322 45.8825C36.3852 45.8825 36.0523 46.0203 35.8069 46.2657L29.5857 52.487C29.4033 52.6695 29.279 52.9019 29.2285 53.1549C29.1779 53.4079 29.2034 53.6702 29.3016 53.9087C29.3998 54.1473 29.5665 54.3515 29.7805 54.4955C29.9945 54.6396 30.2464 54.717 30.5044 54.7182ZM27.5119 63.7351L20.5688 70.6782C20.3856 70.8615 20.2611 71.0951 20.211 71.3493C20.1608 71.6036 20.1874 71.8669 20.2872 72.106C20.3871 72.3452 20.5558 72.5492 20.7718 72.6922C20.9879 72.8353 21.2416 72.9109 21.5007 72.9095C21.8419 72.9095 22.17 72.7782 22.4325 72.5289L29.3757 65.5857C29.8875 65.0739 29.8875 64.247 29.3757 63.7351C28.8638 63.2232 28.0238 63.2232 27.5119 63.7351ZM16.0538 24.7407C16.395 24.7407 16.7232 24.6095 16.9857 24.3601L30.5438 10.7889C31.2394 10.0932 31.2132 8.92511 30.4782 8.19011L29.7694 7.48136L38.445 6.70698L37.3819 15.0939L36.6075 14.3195C35.8725 13.5845 34.7044 13.5582 34.0088 14.2539L28.1157 20.147C27.9942 20.2685 27.8978 20.4128 27.832 20.5715C27.7662 20.7303 27.7324 20.9004 27.7324 21.0723C27.7324 21.2441 27.7662 21.4143 27.832 21.5731C27.8978 21.7318 27.9942 21.8761 28.1157 21.9976C28.2372 22.1191 28.3814 22.2155 28.5402 22.2813C28.699 22.347 28.8691 22.3809 29.041 22.3809C29.2128 22.3809 29.383 22.347 29.5418 22.2813C29.7005 22.2155 29.8448 22.1191 29.9663 21.9976L35.2688 16.6951L36.6732 18.0995C37.2244 18.6507 38.025 18.8214 38.7075 18.5326C39.3244 18.2832 39.7313 17.6926 39.7707 17.0232L41.2407 5.40761C41.2932 5.01386 41.1619 4.62011 40.8863 4.33136C40.6107 4.04261 40.2169 3.91136 39.8232 3.93761L27.8663 5.01386C27.1575 5.01386 26.5275 5.43386 26.2519 6.07698C25.9632 6.75948 26.1338 7.56011 26.685 8.11136L28.0894 9.51573L15.1219 22.4832C15.0002 22.6047 14.9037 22.7489 14.8378 22.9077C14.772 23.0664 14.7381 23.2366 14.7381 23.4085C14.7381 23.5804 14.772 23.7507 14.8378 23.9094C14.9037 24.0682 15.0002 24.2124 15.1219 24.3339C15.3844 24.6095 15.7257 24.7407 16.0538 24.7407ZM23.2594 28.7176L27.7744 24.2026C28.0198 23.9572 28.1577 23.6244 28.1577 23.2773C28.1577 22.9302 28.0198 22.5974 27.7744 22.352C27.529 22.1066 27.1962 21.9687 26.8491 21.9687C26.502 21.9687 26.1692 22.1066 25.9238 22.352L21.4088 26.867C21.2256 27.0503 21.1011 27.2839 21.051 27.5381C21.0008 27.7923 21.0274 28.0557 21.1272 28.2948C21.2271 28.5339 21.3958 28.7379 21.6118 28.881C21.8279 29.024 22.0816 29.0997 22.3407 29.0982C22.6819 29.0982 22.9969 28.9801 23.2594 28.7176ZM13.2188 33.2982C13.56 33.2982 13.8882 33.167 14.1507 32.9176L19.4138 27.6545C19.5353 27.533 19.6317 27.3887 19.6975 27.2299C19.7632 27.0712 19.7971 26.901 19.7971 26.7292C19.7971 26.5573 19.7632 26.3872 19.6975 26.2284C19.6317 26.0696 19.5353 25.9254 19.4138 25.8039C19.2923 25.6823 19.148 25.586 18.9893 25.5202C18.8305 25.4544 18.6603 25.4206 18.4885 25.4206C18.3166 25.4206 18.1465 25.4544 17.9877 25.5202C17.8289 25.586 17.6847 25.6823 17.5632 25.8039L12.3 31.067C12.1177 31.2495 11.9934 31.4819 11.9428 31.7349C11.8923 31.9879 11.9177 32.2502 12.016 32.4887C12.1142 32.7273 12.2808 32.9315 12.4949 33.0755C12.7089 33.2196 12.9608 33.2971 13.2188 33.2982ZM21.3825 25.1345C21.7238 25.1345 22.0519 25.0032 22.3144 24.7539L25.1363 21.932C25.3817 21.6866 25.5196 21.3537 25.5196 21.0067C25.5196 20.6596 25.3817 20.3268 25.1363 20.0814C24.8909 19.8359 24.558 19.6981 24.211 19.6981C23.8639 19.6981 23.5311 19.8359 23.2857 20.0814L20.4638 22.9032C20.2814 23.0857 20.1571 23.3181 20.1066 23.5711C20.056 23.8241 20.0815 24.0864 20.1797 24.325C20.278 24.5635 20.4446 24.7677 20.6586 24.9118C20.8727 25.0558 21.1245 25.1333 21.3825 25.1345ZM16.7494 31.5132C16.5663 31.6965 16.4417 31.9301 16.3916 32.1843C16.3414 32.4386 16.368 32.7019 16.4679 32.941C16.5677 33.1802 16.7364 33.3842 16.9524 33.5272C17.1685 33.6703 17.4222 33.7459 17.6813 33.7445C18.0225 33.7445 18.3507 33.6132 18.6132 33.3639L21.2119 30.7651C21.3334 30.6436 21.4298 30.4993 21.4956 30.3406C21.5613 30.1818 21.5952 30.0116 21.5952 29.8398C21.5952 29.6679 21.5613 29.4978 21.4956 29.339C21.4298 29.1803 21.3334 29.036 21.2119 28.9145C21.0904 28.793 20.9461 28.6966 20.7874 28.6308C20.6286 28.5651 20.4584 28.5312 20.2866 28.5312C20.1148 28.5312 19.9446 28.5651 19.7858 28.6308C19.6271 28.6966 19.4828 28.793 19.3613 28.9145L16.7494 31.5132Z" fill="white"/>
<path d="M43.5356 80.0463L55.4925 78.97C56.2012 78.97 56.8312 78.55 57.1068 77.9069C57.3956 77.2244 57.225 76.4238 56.6737 75.8725L55.2693 74.4681L68.2368 61.5006C68.42 61.3173 68.5445 61.0838 68.5947 60.8295C68.6448 60.5753 68.6183 60.3119 68.5184 60.0728C68.4185 59.8337 68.2499 59.6297 68.0338 59.4866C67.8178 59.3436 67.5641 59.268 67.305 59.2694C66.9637 59.2694 66.6356 59.4006 66.3731 59.65L52.815 73.2081C52.4868 73.5363 52.3031 73.9825 52.3031 74.455C52.3031 74.9538 52.5131 75.4525 52.8675 75.8069L53.5893 76.5288L44.9137 77.3031L45.9768 68.9163L46.7512 69.6906C47.4862 70.4256 48.6543 70.4519 49.35 69.7563L55.2431 63.8631C55.4885 63.6177 55.6264 63.2849 55.6264 62.9378C55.6264 62.5908 55.4885 62.2579 55.2431 62.0125C54.9977 61.7671 54.6648 61.6292 54.3178 61.6292C53.9707 61.6292 53.6379 61.7671 53.3925 62.0125L48.09 67.315L46.6856 65.9106C46.1343 65.3594 45.3337 65.1888 44.6512 65.4775C44.0343 65.7269 43.6275 66.3175 43.5881 66.9869L42.1181 78.6025C42.0656 78.9963 42.1968 79.39 42.4725 79.6788C42.7481 79.9281 43.1418 80.0725 43.5356 80.0463ZM57.4481 61.6319L61.9631 57.1169C62.1462 56.9336 62.2708 56.7 62.3209 56.4458C62.3711 56.1916 62.3445 55.9282 62.2446 55.6891C62.1448 55.45 61.9761 55.2459 61.7601 55.1029C61.544 54.9598 61.2903 54.8842 61.0312 54.8856C60.69 54.8856 60.3618 55.0169 60.0993 55.2663L55.5843 59.7813C55.4627 59.9027 55.3661 60.0469 55.3003 60.2057C55.2344 60.3645 55.2005 60.5347 55.2005 60.7066C55.2005 60.8785 55.2344 61.0487 55.3003 61.2074C55.3661 61.3662 55.4627 61.5105 55.5843 61.6319C56.1093 62.1438 56.9362 62.1438 57.4481 61.6319ZM63.9581 58.1931C64.0795 58.3148 64.2237 58.4113 64.3825 58.4772C64.5413 58.5431 64.7115 58.577 64.8834 58.577C65.0553 58.577 65.2255 58.5431 65.3843 58.4772C65.5431 58.4113 65.6873 58.3148 65.8087 58.1931L71.8987 52.1031C72.0819 51.9198 72.2064 51.6863 72.2566 51.432C72.3067 51.1778 72.2801 50.9144 72.1803 50.6753C72.0804 50.4362 71.9117 50.2322 71.6957 50.0891C71.4796 49.9461 71.2259 49.8705 70.9668 49.8719C70.6256 49.8719 70.2975 50.0031 70.035 50.2525L63.945 56.3425C63.4462 56.8544 63.4462 57.6813 63.9581 58.1931ZM61.9893 58.8494C61.6481 58.8494 61.32 58.9806 61.0575 59.23L58.2356 62.0519C58.1141 62.1734 58.0177 62.3177 57.9519 62.4764C57.8862 62.6352 57.8523 62.8053 57.8523 62.9772C57.8523 63.149 57.8862 63.3192 57.9519 63.478C58.0177 63.6367 58.1141 63.781 58.2356 63.9025C58.3571 64.024 58.5014 64.1204 58.6601 64.1862C58.8189 64.2519 58.9891 64.2858 59.1609 64.2858C59.3327 64.2858 59.5029 64.2519 59.6617 64.1862C59.8204 64.1204 59.9647 64.024 60.0862 63.9025L62.9081 61.0806C63.0904 60.8981 63.2147 60.6657 63.2653 60.4127C63.3158 60.1597 63.2904 59.8974 63.1922 59.6589C63.0939 59.4203 62.9273 59.2162 62.7132 59.0721C62.4992 58.9281 62.2473 58.8506 61.9893 58.8494ZM64.0106 55.0694L65.5068 53.5731C65.69 53.3898 65.8145 53.1563 65.8647 52.902C65.9148 52.6478 65.8883 52.3844 65.7884 52.1453C65.6885 51.9062 65.5199 51.7022 65.3038 51.5591C65.0878 51.4161 64.8341 51.3405 64.575 51.3419C64.2337 51.3419 63.9056 51.4731 63.6431 51.7225L62.1468 53.2188C61.635 53.7306 61.635 54.5575 62.1468 55.0694C62.6587 55.5813 63.4987 55.5813 64.0106 55.0694Z" fill="#FF8D07"/>
</svg>
