<svg width="147" height="32" viewBox="0 0 147 32" fill="none" xmlns="http://www.w3.org/2000/svg">
<g clip-path="url(#clip0_1_8)">
<mask id="mask0_1_8" style="mask-type:luminance" maskUnits="userSpaceOnUse" x="0" y="0" width="147" height="32">
<path d="M147 0H0V32H147V0Z" fill="white"/>
</mask>
<g mask="url(#mask0_1_8)">
<path d="M11.8881 15.3196L10.2367 13.5963L12.1789 11.5705C12.8143 10.9074 13.1186 10.2312 13.1087 9.50437C13.0988 8.77759 12.7632 8.04706 12.0874 7.34088L11.3083 6.52419L11.5004 6.32657L12.8753 4.89173L13.6983 5.75057C14.5061 6.59349 15.2241 7.01402 15.8281 6.99903C16.1202 6.99692 16.409 6.93423 16.6777 6.8146C16.9464 6.69498 17.1897 6.52081 17.3933 6.30222L18.7341 4.90391L18.5169 4.67632L17.7182 3.84277L17.1196 3.21807C16.5496 2.62428 15.9851 2.35174 15.3937 2.38265C14.8022 2.41355 14.1318 2.84063 13.3824 3.62174L8.40048 8.81692L8.21022 8.6165L6.74731 7.08988L6.93848 6.89226L11.7266 1.89563C12.8556 0.720223 14.0358 0.0833516 15.233 0.00561583H15.2411C16.4527 -0.0608811 17.5997 0.457045 18.6426 1.54722L21.7192 4.75406L21.9489 4.99382L18.98 8.0892C18.3733 8.72139 17.7182 9.09228 17.0334 9.19343C16.4832 9.27397 15.8559 9.16346 15.163 8.86375C15.417 9.68326 15.4323 10.4316 15.1989 11.0928C14.9414 11.8814 14.2593 12.8461 13.1159 14.0393L11.8881 15.3196Z" fill="#FF8D07"/>
<g opacity="0.8">
<path d="M15.9844 12.3628L17.6349 10.6395L19.577 12.6662C20.2124 13.3293 20.8595 13.6468 21.556 13.6365C22.2524 13.6262 22.9533 13.276 23.6292 12.5707L24.4118 11.754L24.6011 11.9535L25.9761 13.3883L25.1531 14.2472C24.3453 15.0901 23.9424 15.8394 23.9567 16.4697C23.9588 16.7745 24.0188 17.0759 24.1335 17.3563C24.2481 17.6367 24.415 17.8906 24.6245 18.1031L25.9653 19.5023L26.1825 19.2757L26.9822 18.4421L27.5808 17.8174C28.1489 17.2227 28.4101 16.6336 28.3804 16.0164C28.3508 15.3992 27.9416 14.6996 27.1931 13.9175L22.2147 8.72233L22.4041 8.52284L23.8661 6.99622L24.0528 7.19664L28.8417 12.1933C29.9717 13.3715 30.582 14.6031 30.6556 15.8525V15.8609C30.7202 17.1253 30.223 18.3222 29.1792 19.4105L26.108 22.6183L25.8783 22.8581L22.9165 19.7627C22.3116 19.1296 21.9553 18.4459 21.8584 17.7313C21.7812 17.1571 21.888 16.5025 22.1743 15.7794C21.3899 16.0445 20.6719 16.0604 20.0383 15.8169C19.2826 15.5481 18.3582 14.8363 17.2157 13.6431L15.9844 12.3628Z" fill="#FF8D07"/>
</g>
<g opacity="0.6">
<path d="M18.7755 16.6804L20.4269 18.4037L18.4883 20.4295C17.852 21.0926 17.5486 21.7679 17.5585 22.4947C17.5684 23.2215 17.9031 23.9529 18.5789 24.6582L19.3624 25.4749L19.1713 25.6734L17.7963 27.1083L16.9733 26.2494C16.1656 25.4065 15.4476 24.986 14.8427 25C14.5506 25.0024 14.2619 25.0653 13.9932 25.1849C13.7246 25.3045 13.4813 25.4785 13.2775 25.6968L11.9366 27.0961L12.1538 27.3227L12.9526 28.1572L13.5512 28.7819C14.1211 29.3748 14.6847 29.6473 15.2762 29.6164C15.8676 29.5855 16.5389 29.1594 17.2874 28.3773L22.2658 23.1831L22.4552 23.3797L23.9181 24.9054L23.7251 25.1002L18.937 30.1006C17.808 31.2798 16.6287 31.9166 15.4315 31.9934H15.4225C14.2118 32.0599 13.0648 31.542 12.021 30.4518L8.94712 27.245L8.71826 27.0062L11.6845 23.9108C12.2903 23.2786 12.9454 22.9068 13.6302 22.8066C14.1804 22.726 14.8086 22.8365 15.5015 23.1362C15.2466 22.3167 15.2322 21.5684 15.4647 20.9063C15.7231 20.1186 16.4043 19.1539 17.5486 17.9607L18.7755 16.6804Z" fill="#FF8D07"/>
</g>
<g opacity="0.4">
<path d="M14.6802 19.6372L13.0288 21.3605L11.0876 19.3347C10.4522 18.6716 9.80418 18.3541 9.10773 18.3644C8.41129 18.3747 7.71125 18.724 7.03454 19.4293L6.25194 20.2469L6.06257 20.0474L4.68762 18.6126L5.51061 17.7537C6.31835 16.9108 6.72132 16.1616 6.70696 15.5303C6.70479 15.2255 6.64465 14.9241 6.53002 14.6438C6.4154 14.3634 6.24858 14.1095 6.03923 13.8969L4.69929 12.4986L4.4812 12.7253L3.68244 13.5588L3.08381 14.1835C2.51481 14.7782 2.25364 15.3673 2.28326 15.9836C2.31287 16.5999 2.72213 17.3014 3.47063 18.0834L8.44898 23.2777L8.25692 23.4762L6.79761 25.0066L6.60824 24.8071L1.82015 19.8058C0.690221 18.6276 0.0799312 17.3969 0.00543991 16.1475V16.1391C-0.0582815 14.8747 0.438028 13.6778 1.4827 12.5885L4.55569 9.38074L4.78545 9.14191L7.75163 12.2373C8.35744 12.8704 8.71284 13.5532 8.80977 14.2687C8.88695 14.8419 8.78105 15.4975 8.49385 16.2206C9.27915 15.9546 9.99624 15.9396 10.6299 16.1831C11.3856 16.4519 12.31 17.1637 13.4534 18.3569L14.6802 19.6372Z" fill="#FF8D07"/>
</g>
<path d="M46.5572 17.8811C47.3728 17.5313 48.0664 16.9297 48.5451 16.1569C48.8368 15.689 49.0305 15.162 49.1133 14.6106C49.1962 14.0591 49.1664 13.4956 49.0259 12.957C48.8853 12.4184 48.6373 11.9169 48.298 11.4854C47.9587 11.0539 47.5358 10.7021 47.0571 10.4531C46.3661 10.0938 45.6023 9.91355 44.8304 9.92772H38.4224V22.7878H40.9748V18.2323H43.7328L46.6613 22.7878L49.7594 22.8066L46.5572 17.8811ZM40.9748 12.3169H44.3906C44.7509 12.3114 45.1081 12.3868 45.438 12.5379C45.7335 12.6731 45.9887 12.8889 46.1766 13.1626C46.3607 13.4435 46.4549 13.7778 46.4459 14.1179C46.4507 14.4553 46.3622 14.787 46.191 15.0733C46.0231 15.3527 45.7899 15.5831 45.5134 15.7429C45.2169 15.9123 44.883 15.9979 44.545 15.9911H40.9748V12.3169Z" fill="#FF8D07"/>
<path d="M62.5916 22.8993C61.4303 22.8993 60.4095 22.6511 59.5294 22.1547C58.6742 21.6844 57.961 20.9752 57.4697 20.1064C56.9707 19.2155 56.715 18.1992 56.7301 17.1674V9.91083H59.3885V17.0569C59.3777 17.6617 59.5234 18.2584 59.8103 18.784C60.0842 19.2779 60.4791 19.6869 60.9546 19.9687C61.4539 20.2615 62.0189 20.4105 62.5916 20.4005C63.1784 20.4095 63.7576 20.2608 64.2735 19.9687C64.7587 19.6924 65.1622 19.2826 65.4402 18.784C65.7278 18.2586 65.8739 17.6619 65.8629 17.0569V9.91083H68.4324V17.1674C68.4474 18.199 68.192 19.2153 67.6938 20.1064C67.2019 20.9748 66.4889 21.6838 65.6341 22.1547C64.7563 22.6511 63.7422 22.8993 62.5916 22.8993Z" fill="#FF8D07"/>
<path d="M88.6626 9.92767V22.7878H86.1586L78.6969 14.0683C78.7104 14.191 78.7185 16.7666 78.7301 17.1028C78.7418 17.439 78.7481 17.7912 78.7481 18.1593V22.7878H76.1633V9.92767H78.6278L86.1057 18.7315C86.1057 18.5142 86.0895 15.1454 86.0832 14.7342C86.077 14.3231 86.0743 13.8913 86.0743 13.4389V9.92767H88.6626Z" fill="#FF8D07"/>
<path d="M104.647 17.8811C104.79 17.8195 104.931 17.7498 105.067 17.6723C105.706 17.317 106.246 16.7949 106.634 16.1569C106.926 15.689 107.119 15.1621 107.202 14.6106C107.285 14.0591 107.255 13.4956 107.115 12.957C106.974 12.4184 106.726 11.9169 106.387 11.4854C106.047 11.0539 105.625 10.7021 105.146 10.4531C104.455 10.0942 103.691 9.9146 102.919 9.92958H96.512V22.7878H99.0644V18.2323H101.821L104.75 22.7878L107.848 22.8066L104.647 17.8811ZM99.0644 12.3169H102.475C102.835 12.3114 103.192 12.3868 103.522 12.5379C103.818 12.673 104.074 12.8888 104.262 13.1626C104.445 13.4437 104.54 13.7779 104.531 14.1179C104.536 14.4555 104.447 14.7873 104.275 15.0733C104.108 15.3529 103.874 15.5834 103.598 15.7429C103.301 15.9125 102.967 15.998 102.629 15.9911H99.0563L99.0644 12.3169Z" fill="#FF8D07"/>
<path d="M121.141 22.9723C120.18 22.9833 119.226 22.8122 118.324 22.4675C117.499 22.1502 116.738 21.6736 116.081 21.0627C115.45 20.4771 114.948 19.756 114.609 18.9488C114.265 18.1215 114.091 17.2281 114.098 16.3264C114.09 15.4221 114.268 14.5265 114.618 13.6993C114.96 12.8952 115.461 12.1753 116.088 11.5864C116.741 10.9742 117.5 10.4974 118.324 10.1815C119.225 9.83607 120.179 9.6647 121.14 9.67579C122.111 9.66301 123.077 9.8311 123.991 10.1721C124.817 10.4833 125.577 10.9606 126.227 11.577C126.851 12.1698 127.349 12.8928 127.688 13.6993C128.025 14.5304 128.198 15.4236 128.198 16.3259C128.198 17.2283 128.025 18.1215 127.688 18.9525C127.349 19.7585 126.852 20.481 126.228 21.073C125.578 21.6893 124.818 22.1666 123.992 22.4778C123.077 22.8182 122.112 22.9857 121.141 22.9723ZM121.158 20.364C121.754 20.3706 122.347 20.2679 122.91 20.0605C123.42 19.873 123.889 19.5828 124.292 19.2064C124.674 18.8459 124.982 18.4085 125.198 17.9204C125.413 17.4174 125.524 16.8729 125.524 16.3222C125.524 15.7715 125.413 15.2269 125.198 14.7239C124.983 14.2378 124.675 13.8033 124.292 13.4473C123.884 13.0733 123.412 12.7834 122.901 12.5932C121.77 12.1773 120.537 12.1773 119.407 12.5932C118.897 12.7863 118.423 13.0716 118.008 13.4361C117.615 13.7828 117.304 14.2197 117.1 14.7127C116.897 15.2221 116.792 15.7685 116.792 16.3203C116.792 16.8721 116.897 17.4185 117.1 17.9279C117.305 18.4229 117.616 18.8626 118.008 19.2138C118.42 19.5827 118.894 19.8685 119.407 20.0568C119.97 20.2656 120.563 20.3696 121.16 20.364H121.158Z" fill="#FF8D07"/>
<path d="M147 22.7878H143.655L140.158 18.2089L136.772 22.7878H133.569L138.606 16.2009L133.656 9.92957H137.001L140.413 14.4317L143.603 9.92957H146.806L141.94 16.406L147 22.7878Z" fill="#FF8D07"/>
</g>
</g>
<defs>
<clipPath id="clip0_1_8">
<rect width="147" height="32" fill="white"/>
</clipPath>
</defs>
</svg>
