<svg width="57" height="59" viewBox="0 0 57 59" fill="none" xmlns="http://www.w3.org/2000/svg">
<path d="M22.1003 28.2471L19.0303 25.0696L22.6409 21.3343C23.8222 20.1117 24.3879 18.8649 24.3695 17.5247C24.3511 16.1846 23.7272 14.8376 22.4708 13.5356L21.0225 12.0297L21.3796 11.6653L23.9356 9.0197L25.4656 10.6033C26.9673 12.1575 28.3021 12.9329 29.4249 12.9052C29.9679 12.9013 30.5048 12.7858 31.0044 12.5652C31.5039 12.3446 31.9562 12.0235 32.3347 11.6204L34.8273 9.04216L34.4235 8.62252L32.9387 7.08558L31.8259 5.93373C30.7662 4.83888 29.7168 4.33635 28.6174 4.39335C27.5177 4.45032 26.2714 5.23779 24.8783 6.67804L15.6168 16.2571L15.2631 15.8876L12.5435 13.0727L12.8988 12.7084L21.8001 3.49536C23.899 1.32809 26.093 0.1538 28.3186 0.0104673H28.3337C30.5861 -0.112143 32.7184 0.842832 34.6572 2.85295L40.3766 8.76586L40.8037 9.20794L35.2844 14.9153C34.1565 16.081 32.9387 16.7649 31.6656 16.9514C30.6428 17.0999 29.4766 16.8961 28.1885 16.3435C28.6607 17.8545 28.6891 19.2344 28.2552 20.4535C27.7765 21.9076 26.5085 23.6863 24.3829 25.8864L22.1003 28.2471Z" fill="#FF8D07"/>
<g opacity="0.8">
<path d="M29.7155 22.7936L32.7838 19.6161L36.3942 23.353C37.5754 24.5757 38.7784 25.1611 40.0732 25.1421C41.3679 25.1231 42.6708 24.4774 43.9274 23.1769L45.3822 21.671L45.7342 22.0389L48.2903 24.6844L46.7603 26.2681C45.2586 27.8223 44.5096 29.2039 44.5362 30.3661C44.5401 30.9281 44.6516 31.4838 44.8649 32.0008C45.0779 32.5178 45.3882 32.986 45.7777 33.3778L48.2702 35.9577L48.674 35.5399L50.1607 34.0029L51.2735 32.851C52.3296 31.7545 52.8152 30.6683 52.76 29.5302C52.705 28.3922 51.9443 27.1023 50.5528 25.6602L41.2978 16.0811L41.6499 15.7133L44.3678 12.8984L44.7149 13.268L53.6176 22.481C55.7183 24.6535 56.8528 26.9243 56.9897 29.228V29.2435C57.1098 31.5749 56.1854 33.7818 54.245 35.7884L48.5355 41.7031L48.1085 42.1453L42.6024 36.4378C41.4779 35.2705 40.8155 34.0099 40.6354 32.6923C40.4919 31.6335 40.6904 30.4265 41.2227 29.0933C39.7644 29.5821 38.4297 29.6114 37.2518 29.1624C35.8469 28.6668 34.1284 27.3543 32.0045 25.1542L29.7155 22.7936Z" fill="#FF8D07"/>
</g>
<g opacity="0.6">
<path d="M34.9042 30.7539L37.9742 33.9314L34.3703 37.6667C33.1874 38.8893 32.6234 40.1345 32.6418 41.4746C32.6602 42.8147 33.2824 44.1633 34.5387 45.4637L35.9953 46.9696L35.64 47.3356L33.0839 49.9813L31.5539 48.3976C30.0524 46.8435 28.7176 46.0681 27.593 46.094C27.05 46.0984 26.5133 46.2144 26.0138 46.4349C25.5145 46.6554 25.0622 46.9762 24.6833 47.3787L22.1905 49.9588L22.5943 50.3766L24.0793 51.9153L25.1921 53.0672C26.2516 54.1604 27.2993 54.6628 28.3989 54.6059C29.4984 54.5489 30.7463 53.7632 32.1378 52.3212L41.3928 42.7439L41.7449 43.1064L44.4645 45.9195L44.1057 46.2787L35.2045 55.4987C33.1056 57.6729 30.9133 58.8471 28.6876 58.9887H28.6709C26.4202 59.1113 24.2879 58.1564 22.3474 56.1462L16.633 50.2334L16.2075 49.7931L21.7218 44.0856C22.848 42.92 24.0659 42.2344 25.339 42.0497C26.3618 41.9011 27.5296 42.1048 28.8178 42.6574C28.3439 41.1464 28.3171 39.7666 28.7494 38.5458C29.2297 37.0934 30.4961 35.3147 32.6234 33.1146L34.9042 30.7539Z" fill="#FF8D07"/>
</g>
<g opacity="0.4">
<path d="M27.2909 36.2071L24.2209 39.3846L20.6122 35.6494C19.431 34.4267 18.2263 33.8413 16.9315 33.8603C15.6368 33.8793 14.3354 34.5233 13.0774 35.8238L11.6225 37.3313L11.2705 36.9635L8.71443 34.3179L10.2444 32.7343C11.746 31.1801 12.4951 29.7987 12.4684 28.6346C12.4644 28.0726 12.3526 27.5169 12.1395 27.0001C11.9264 26.4831 11.6163 26.0149 11.2271 25.6229L8.73612 23.0447L8.33069 23.4627L6.84577 24.9995L5.7329 26.1514C4.67511 27.2479 4.18959 28.3341 4.24465 29.4705C4.2997 30.6068 5.06052 31.9003 6.45201 33.3422L15.7069 42.9196L15.3499 43.2856L12.637 46.1075L12.2849 45.7396L3.38371 36.518C1.28314 34.3456 0.148594 32.0764 0.010113 29.7727V29.7572C-0.108347 27.4258 0.814307 25.2189 2.75638 23.2104L8.46916 17.2958L8.8963 16.8555L14.4105 22.5629C15.5367 23.7302 16.1974 24.9892 16.3776 26.3085C16.5211 27.3653 16.3242 28.5742 15.7903 29.9075C17.2502 29.417 18.5833 29.3893 19.7613 29.8383C21.1662 30.3339 22.8847 31.6464 25.0103 33.8465L27.2909 36.2071Z" fill="#FF8D07"/>
</g>
</svg>
