<svg width="61" height="61" viewBox="0 0 61 61" fill="none" xmlns="http://www.w3.org/2000/svg">
<g clip-path="url(#clip0_5971_6868)">
<path d="M30.5 61C47.3447 61 61 47.3447 61 30.5C61 13.6553 47.3447 0 30.5 0C13.6553 0 0 13.6553 0 30.5C0 47.3447 13.6553 61 30.5 61Z" fill="#FF8D07"/>
<path d="M22.7066 44.2592L38.3896 59.9421C51.3785 56.4784 61 44.644 61 30.5005C61 30.2119 61 29.9232 61 29.6346L48.6845 18.2812L22.7066 44.2592Z" fill="#6A3C07"/>
<path d="M31.2697 37.3335C32.6167 38.6805 32.6167 40.9897 31.2697 42.3367L28.4795 45.1269C27.1325 46.4739 24.8233 46.4739 23.4763 45.1269L11.2571 32.8114C9.91008 31.4644 9.91008 29.1553 11.2571 27.8083L14.0473 25.0181C15.3943 23.6711 17.7035 23.6711 19.0505 25.0181L31.2697 37.3335Z" fill="#060606"/>
<path d="M41.9495 16.0688C43.2965 14.7218 45.6056 14.7218 46.9526 16.0688L49.7429 18.8591C51.0899 20.2061 51.0899 22.5152 49.7429 23.8622L28.5757 44.9332C27.2287 46.2802 24.9195 46.2802 23.5725 44.9332L20.7823 42.143C19.4353 40.796 19.4353 38.4868 20.7823 37.1398L41.9495 16.0688Z" fill="#060606"/>
</g>
<defs>
<clipPath id="clip0_5971_6868">
<rect width="61" height="61" fill="white"/>
</clipPath>
</defs>
</svg>
